<?xml version="1.0" encoding="UTF-8"?>
<!DOCTYPE svg PUBLIC "-//W3C//DTD SVG 1.1//EN" "http://www.w3.org/Graphics/SVG/1.1/DTD/svg11.dtd">
<!-- Creator: CorelDRAW -->
<svg xmlns="http://www.w3.org/2000/svg" xml:space="preserve" width="16.9333mm" height="16.9418mm" style="shape-rendering:geometricPrecision; text-rendering:geometricPrecision; image-rendering:optimizeQuality; fill-rule:evenodd; clip-rule:evenodd"
viewBox="0 0 3.44537 3.4471"
 xmlns:xlink="http://www.w3.org/1999/xlink">
 <defs>
  <style type="text/css">
   <![CDATA[
    .fil1 {fill:#1E3262}
    .fil0 {fill:white}
   ]]>
  </style>
 </defs>
 <g id="Слой_x0020_1">
  <metadata id="CorelCorpID_0Corel-Layer"/>
  <g id="_237266624">
   <path id="_237266672" class="fil0" d="M3.41721 1.72455c0,0.935318 -0.758668,1.69437 -1.69331,1.69437 -0.934748,0 -1.6934,-0.759054 -1.6934,-1.69437 0,-0.935318 0.758647,-1.69425 1.6934,-1.69425 0.934646,0 1.69331,0.758932 1.69331,1.69425z"/>
   <path id="_236015560" class="fil1" d="M-0 1.72455c0,0.949418 0.772951,1.72255 1.72389,1.72255 0.948665,0 1.72147,-0.773134 1.72147,-1.72255 0,-0.951534 -0.772809,-1.72455 -1.72147,-1.72455 -0.950944,0 -1.72389,0.773012 -1.72389,1.72455zm0.0588427 0c0,-0.918857 0.746541,-1.66605 1.66505,-1.66605 0.916456,0 1.66302,0.747192 1.66302,1.66605 0,0.917006 -0.746561,1.66379 -1.66302,1.66379 -0.918511,0 -1.66505,-0.746785 -1.66505,-1.66379z"/>
   <path id="_234762200" class="fil1" d="M0.536115 1.25069c0.441096,-0.287316 0.928786,-0.457251 1.75417,-0.3134 0.0444982,-0.0264711 0.0707251,-0.05282 0.0831163,-0.105396 -0.20656,-0.0748148 -0.430964,-0.101164 -0.720192,-0.0972166 -0.259176,0.00817937 -0.726581,0.105131 -0.977211,0.253194l0.0766053 -0.0951005c0.174025,-0.103544 0.629181,-0.238972 0.971291,-0.245157 0.2406,-0.00592089 0.364023,0.00803695 0.65142,0.0849678 -0.0264711,-0.0482217 -0.0850289,-0.0727395 -0.172052,-0.113168 -0.277041,-0.123566 -0.793033,-0.135814 -1.21578,0.0524335 0.0524335,-0.0363799 0.10507,-0.0688939 0.174025,-0.0988036 0.139314,-0.0649467 0.368133,-0.127777 0.653272,-0.121734 0.228819,0.00408969 0.499939,0.0830146 0.665724,0.247029 0.0281802,0.0342435 0.0444982,0.0686091 0.0505819,0.0951005 0.131541,0.0667982 0.208269,0.129486 0.250753,0.202348 0.0183731,0.0384756 0.0244364,0.0789045 0.016196,0.125417 0.0546106,0.0322699 0.081102,0.0607349 0.109547,0.0974811 0.0179254,0.0302962 0.0320664,0.0644177 0.0362985,0.0952429 0.00592089,0.0401847 0.00994954,0.086799 -0.0325547,0.141491 0.0445389,0.0223814 0.0808375,0.0848254 0.0851916,0.111419 0.0221169,0.0988239 -0.0426874,0.19602 -0.125498,0.271099 -0.0972776,0.0848458 -0.311752,0.186172 -0.485757,0.230813 -0.343697,0.0868397 -0.649385,0.123464 -0.891918,0.168003 0.10914,0.0262066 0.256816,0.0608163 0.49764,0.0608163 0.515647,0 0.970924,-0.243163 0.970924,-0.243163 0,0 -0.00990884,0.0306828 -0.0202043,0.0590258 -0.327765,0.198238 -0.847522,0.28111 -1.0703,0.270977 -0.224587,-0.0102751 -0.414625,-0.0445186 -0.600757,-0.101306 -0.0567063,0.0163181 -0.113351,0.0346301 -0.16784,0.0567877 0.283308,0.129486 0.497619,0.157931 0.738443,0.175979 0.246663,0.0184545 0.655571,-0.040551 0.999267,-0.165724 -0.0161756,0.0163384 -0.0242329,0.0404696 -0.0403068,0.0546716 -0.176202,0.0930048 -0.548201,0.186152 -0.736408,0.194189 -0.186315,0.00813868 -0.412753,0 -0.611093,-0.036502 -0.169956,-0.0342638 -0.309718,-0.0871856 -0.455298,-0.151624 -0.0261252,0.0198991 -0.0382518,0.0445389 -0.0445186,0.0728412 0.568792,0.297489 1.0986,0.303512 1.70381,0.115284l-0.0549564 0.0526776c-0.665581,0.271262 -1.18546,0.165866 -1.58824,-0.0283023 -0.0140189,-0.00620574 -0.0302352,-0.0123911 -0.0422194,-0.0204281 0.0384756,0.0649467 0.345711,0.289554 0.689692,0.317856 0.236937,0.0202857 0.526145,-0.0202857 0.698136,-0.0888947l-0.101042 0.0524335c-0.0831366,0.040551 -0.303532,0.133841 -0.611256,0.113535 -0.410617,-0.0284447 -0.641409,-0.210649 -0.744486,-0.305607 -0.0486897,-0.0448238 -0.0706844,-0.0952429 -0.0849882,-0.157951 -0.0930862,-0.0486286 -0.151746,-0.099353 -0.200171,-0.176284 -0.0283226,-0.0424025 -0.0223814,-0.0928624 -0.0163181,-0.135692l0.0124318 -0.0360747c-0.044661,-0.0326565 -0.0912143,-0.0670627 -0.109404,-0.101184 -0.0406324,-0.0729633 -0.0160739,-0.135936 0.0121266,-0.184423 -0.0244364,-0.0283226 -0.046716,-0.0566452 -0.0565231,-0.0849678 -0.0121063,-0.0324123 -0.0141613,-0.0650891 -0.0103972,-0.101306 0.00809799,-0.0605925 0.0406324,-0.117238 0.0831366,-0.165968 0.0888337,-0.103158 0.230772,-0.184178 0.47127,-0.263083 0.236917,-0.0790469 0.332038,-0.0912957 0.510072,-0.131867 0.208269,-0.0483641 0.45717,-0.064438 0.665602,-0.137279 -0.580898,-0.101164 -1.18357,-0.00813868 -1.67529,0.329596l0.0322292 -0.0951005zm1.97862 -0.357919c-0.00809799,0.0283226 -0.0381094,0.0627085 -0.0585375,0.0851103 0.0627696,0.016196 0.127513,0.0401847 0.188065,0.0625661 -0.00799625,-0.0566656 -0.0727395,-0.111317 -0.129527,-0.147676zm-1.78829 1.16163c-0.0385774,-0.0200212 -0.0628103,-0.0362375 -0.0952226,-0.0566452 -0.016196,0.0366241 0.0164605,0.0767885 0.0486693,0.0952226 0.0140392,-0.014202 0.0324123,-0.0263286 0.0465533,-0.0385774zm1.95642 -0.759054c0.0423415,0.0202857 0.0810816,0.034508 0.11736,0.060857 0.0261455,-0.0507243 0.00994954,-0.0831366 -0.0443762,-0.129629 -0.0224017,0.0264711 -0.0468381,0.0486286 -0.0729836,0.0687719zm-0.123586 0.0750793c-0.0847033,0.0404492 -0.206092,0.0807561 -0.380097,0.123464 -0.143688,0.0363189 -0.491719,0.0869008 -0.865895,0.16782 -0.1174,0.026349 -0.439285,0.101143 -0.597094,0.23472 0.0445186,0.0367665 0.0728412,0.044661 0.121409,0.073004 0.0647432,-0.0425653 0.15378,-0.0829942 0.285464,-0.117645 0.228351,-0.0604704 0.400525,-0.086677 0.607024,-0.12092 0.204261,-0.0308253 0.590563,-0.111602 0.803044,-0.188655 0.070949,-0.0241108 0.13557,-0.0565231 0.182001,-0.0952429 -0.0142223,-0.0159315 -0.151766,-0.0827297 -0.155856,-0.0765443zm-1.6163 0.894746c0.0322088,-0.0204077 0.070542,-0.0387198 0.113026,-0.054814 -0.0585782,-0.0264711 -0.121266,-0.0524335 -0.182001,-0.0808781 -0.0283023,0.0182103 -0.0544681,0.0363799 -0.0746927,0.0544071 0.0484252,0.028465 0.0951208,0.0546919 0.143668,0.0812851zm-0.196427 0.0179254c-0.00203467,0.0385977 0.0224017,0.0729633 0.0729836,0.115529 0.00592089,-0.0204484 0.016196,-0.0363799 0.0303573,-0.0566452 -0.0344877,-0.0184545 -0.068955,-0.036502 -0.103341,-0.0588834zm0.28935 -0.70835c0.420892,-0.123566 0.862029,-0.161899 1.30919,-0.281252 -0.174025,-0.0465126 -0.271445,-0.0669203 -0.455135,-0.0445186 -0.267234,0.032392 -0.562647,0.0887727 -0.815435,0.163872 -0.0993326,0.0304387 -0.619211,0.178115 -0.469317,0.384532 0,0.00209571 0.088732,-0.123301 0.430699,-0.222634zm1.57628 -0.431289c-0.0690974,-0.0301742 -0.154065,-0.0607349 -0.244832,-0.0848254 -0.0407748,0.032392 -0.0870025,0.0605721 -0.15612,0.0871856 0.113636,0.0198991 0.198604,0.0523114 0.295414,0.0787824 0.0162163,0.00815903 0.0930862,-0.062444 0.105538,-0.0811427zm0.208249 0.40496c-0.014141,0.0121063 -0.0283023,0.0221372 -0.0423211,0.034508 -0.0952429,0.0725767 -0.247009,0.13146 -0.455278,0.186274 -0.432876,0.117238 -0.746805,0.133169 -1.10295,0.22064 -0.0706844,0.0180679 -0.143505,0.0403068 -0.2101,0.0686498 0.0665948,0.0344877 0.139416,0.0648043 0.212277,0.0932489 0.14556,-0.0424025 0.214658,-0.0607146 0.424778,-0.0951208 0.0809392,-0.0144665 0.327826,-0.058863 0.505839,-0.0949581 0.321905,-0.0691584 0.793257,-0.218951 0.667758,-0.413242z"/>
  </g>
 </g>
</svg>
