<?xml version="1.0" encoding="UTF-8"?>
<!DOCTYPE svg PUBLIC "-//W3C//DTD SVG 1.1//EN" "http://www.w3.org/Graphics/SVG/1.1/DTD/svg11.dtd">
<!-- Creator: CorelDRAW -->
<svg xmlns="http://www.w3.org/2000/svg" xml:space="preserve" width="17.0312mm" height="17.0307mm" style="shape-rendering:geometricPrecision; text-rendering:geometricPrecision; image-rendering:optimizeQuality; fill-rule:evenodd; clip-rule:evenodd"
viewBox="0 0 1.53835 1.5383"
 xmlns:xlink="http://www.w3.org/1999/xlink">
 <defs>
  <style type="text/css">
   <![CDATA[
    .str0 {stroke:#655C4B;stroke-width:0.00688277}
    .fil3 {fill:none;fill-rule:nonzero}
    .fil2 {fill:#FEFEFE;fill-rule:nonzero}
    .fil0 {fill:#655C4B;fill-rule:nonzero}
    .fil1 {fill:#DDDFDC;fill-rule:nonzero}
   ]]>
  </style>
 </defs>
 <g id="Слой_x0020_1">
  <metadata id="CorelCorpID_0Corel-Layer"/>
  <g id="_476575248">
   <path id="_483076648" class="fil0" d="M0.769173 0.048622c-0.397882,0 -0.72046,0.322587 -0.72046,0.720352 0,0.398036 0.322578,0.720795 0.72046,0.720795 0.398009,0 0.720632,-0.322759 0.720632,-0.720795 0,-0.278888 -0.158918,-0.520336 -0.390954,-0.640053 -0.00214974,-0.00200522 -0.0040014,-0.00377559 -0.00633179,-0.00585307 0,0 -0.000135488,0.00107487 -0.000135488,0.00270072 -0.0282447,-0.0142714 -0.0577178,-0.0266278 -0.0879676,-0.0371056 0.00233039,-0.00980028 0.00541048,-0.0243155 0.00664793,-0.0350191 0.00138197,-0.0131152 -0.00909574,-0.0268537 -0.0306925,-0.021678 -0.0149669,0.0033059 -0.0533821,0.0167282 -0.0870192,0.028073 -0.0404115,-0.00702729 -0.0817623,-0.0114171 -0.124179,-0.0114171z"/>
   <g>
    <path id="_483076720" class="fil1" d="M0.0531383 0.768974l-0.00885186 0 0 0 0.000939381 -0.0372862 0.00280008 -0.0367985 0.00460658 -0.0362655 0.00638599 -0.0356875 0.0080841 -0.0350642 0.00977318 -0.0343958 0.011399 -0.0336822 0.0129797 -0.0329054 0.0145152 -0.0321106 0.0160056 -0.0312435 0.0174598 -0.0303583 0.0188599 -0.0294008 0.0202057 -0.0284253 0.0215245 -0.0273775 0.02278 -0.0262936 0.0239994 -0.0251736 0.0251736 -0.0239994 0.0263027 -0.02278 0.0273775 -0.0215245 0.0284343 -0.0202057 0.0294008 -0.0188509 0.0303583 -0.0174598 0.0312525 -0.0160056 0.0321106 -0.0145152 0.0329325 -0.0129797 0.0336732 -0.011399 0.0344048 -0.00977318 0.0350732 -0.0080841 0.0356875 -0.00638599 0.0362836 -0.00460658 0.0368075 -0.00280008 0.0372952 -0.000939381 0 0.00885186 -0.0368436 0.000939381 -0.0363739 0.00276395 -0.035832 0.00455239 -0.0352539 0.00629566 -0.0346397 0.00799377 -0.0339713 0.00964672 -0.0332758 0.0112545 -0.032517 0.0128171 -0.0317132 0.0143527 -0.0308731 0.0158069 -0.0299789 0.0172431 -0.0290576 0.018616 -0.028073 0.0199709 -0.0270524 0.0212535 -0.0259775 0.022509 -0.0248665 0.0237103 -0.0237103 0.0248665 -0.022509 0.0259685 -0.0212535 0.0270524 -0.0199709 0.028064 -0.018625 0.0290576 -0.0172431 0.0299789 -0.0158069 0.0308641 -0.0143527 0.0317132 -0.0128171 0.032508 -0.0112545 0.0332667 -0.00964672 0.0339622 -0.00799377 0.0346307 -0.00629566 0.0352539 -0.00455239 0.0358139 -0.00276395 0.0363649 -0.000939381 0.0368346 0 0zm-0.00885186 0l0.00885186 0 -9.03251e-006 0.000225813 -1.8065e-005 0.000225813 -2.70975e-005 0.00021678 -3.61301e-005 0.000225813 -4.51626e-005 0.000207748 -6.32276e-005 0.000207748 -7.22601e-005 0.000207748 -8.12926e-005 0.000198715 -8.12926e-005 0.000198715 -9.93576e-005 0.000189683 -0.00010839 0.000189683 -0.000117423 0.00018065 -0.000126455 0.000171618 -0.000126455 0.000162585 -0.00014452 0.000162585 -0.00014452 0.000153553 -0.000153553 0.00014452 -0.000162585 0.00014452 -0.000162585 0.000126455 -0.000171618 0.000126455 -0.00018065 0.000117423 -0.000189683 0.00010839 -0.000189683 9.93576e-005 -0.000198715 8.12926e-005 -0.000198715 8.12926e-005 -0.000207748 7.22601e-005 -0.000207748 6.32276e-005 -0.000207748 4.51626e-005 -0.000225813 3.61301e-005 -0.00021678 2.70975e-005 -0.000225813 1.8065e-005 -0.000225813 9.03251e-006 -0.000225813 -9.03251e-006 -0.000225813 -1.8065e-005 -0.00021678 -2.70975e-005 -0.000225813 -3.61301e-005 -0.000207748 -4.51626e-005 -0.000207748 -6.32276e-005 -0.000207748 -7.22601e-005 -0.000198715 -8.12926e-005 -0.000198715 -8.12926e-005 -0.000189683 -9.93576e-005 -0.000189683 -0.00010839 -0.00018065 -0.000117423 -0.000171618 -0.000126455 -0.000162585 -0.000126455 -0.000162585 -0.00014452 -0.000153553 -0.00014452 -0.00014452 -0.000153553 -0.00014452 -0.000162585 -0.000126455 -0.000162585 -0.000126455 -0.000171618 -0.000117423 -0.00018065 -0.00010839 -0.000189683 -9.93576e-005 -0.000189683 -8.12926e-005 -0.000198715 -8.12926e-005 -0.000198715 -7.22601e-005 -0.000207748 -6.32276e-005 -0.000207748 -4.51626e-005 -0.000207748 -3.61301e-005 -0.000225813 -2.70975e-005 -0.00021678 -1.8065e-005 -0.000225813 -9.03251e-006 -0.000225813zm0.724886 0.716369l0 0.00885186 0 0 -0.0372952 -0.000939381 -0.0368075 -0.00280008 -0.0362836 -0.00461561 -0.0356875 -0.00637695 -0.0350732 -0.00810216 -0.0344048 -0.00977318 -0.0336822 -0.0114081 -0.0329235 -0.0129888 -0.0321106 -0.0145152 -0.0312525 -0.0160237 -0.0303583 -0.0174598 -0.0294008 -0.0188689 -0.0284343 -0.0202148 -0.0273775 -0.0215335 -0.0263027 -0.022789 -0.0251736 -0.0240175 -0.0239994 -0.0251826 -0.02278 -0.0263207 -0.0215245 -0.0274046 -0.0202057 -0.0284253 -0.0188599 -0.0294279 -0.0174598 -0.0303673 -0.0160056 -0.0312706 -0.0145243 -0.0321196 -0.0129707 -0.0329416 -0.011399 -0.0337003 -0.00977318 -0.0344139 -0.0080841 -0.0350823 -0.00638599 -0.0357055 -0.00460658 -0.0363017 -0.00280008 -0.0368165 -0.000939381 -0.0373133 0.00885186 0 0.000939381 0.0368617 0.00276395 0.036383 0.00455239 0.03585 0.00629566 0.035272 0.00799377 0.0346487 0.00964672 0.0339984 0.0112545 0.0332848 0.0128262 0.0325261 0.0143436 0.0317222 0.0158069 0.0308912 0.0172431 0.030006 0.018625 0.0290666 0.0199709 0.0280821 0.0212535 0.0270614 0.022509 0.0259956 0.0237103 0.0248755 0.0248665 0.0237284 0.0259775 0.0225181 0.0270524 0.0212625 0.028073 0.0199799 0.0290576 0.0186341 0.0299789 0.0172431 0.0308731 0.015825 0.0317132 0.0143527 0.0325261 0.0128262 0.0332667 0.0112635 0.0339713 0.00964672 0.0346397 0.00801184 0.0352539 0.00628663 0.035832 0.00456142 0.0363739 0.00276395 0.0368436 0.000939381 0 0zm0 0.00885186l0 -0.00885186 0.000225813 9.03251e-006 0.000225813 1.8065e-005 0.00021678 2.70975e-005 0.000225813 3.61301e-005 0.000207748 4.51626e-005 0.000207748 6.32276e-005 0.000207748 7.22601e-005 0.000198715 8.12926e-005 0.000198715 8.12926e-005 0.000189683 9.93576e-005 0.000189683 0.00010839 0.00018065 0.000117423 0.000171618 0.000126455 0.000162585 0.000126455 0.000162585 0.00014452 0.000153553 0.00014452 0.00014452 0.000153553 0.00014452 0.000162585 0.000126455 0.000162585 0.000126455 0.000171618 0.000117423 0.00018065 0.00010839 0.000189683 9.93576e-005 0.000189683 8.12926e-005 0.000198715 8.12926e-005 0.000198715 7.22601e-005 0.000207748 6.32276e-005 0.000207748 4.51626e-005 0.000207748 3.61301e-005 0.000225813 2.70975e-005 0.00021678 1.8065e-005 0.000225813 9.03251e-006 0.000225813 -9.03251e-006 0.000225813 -1.8065e-005 0.000225813 -2.70975e-005 0.00021678 -3.61301e-005 0.000225813 -4.51626e-005 0.000207748 -6.32276e-005 0.000207748 -7.22601e-005 0.000207748 -8.12926e-005 0.000198715 -8.12926e-005 0.000198715 -9.93576e-005 0.000189683 -0.00010839 0.000189683 -0.000117423 0.00018065 -0.000126455 0.000171618 -0.000126455 0.000162585 -0.00014452 0.000162585 -0.00014452 0.000153553 -0.000153553 0.00014452 -0.000162585 0.00014452 -0.000162585 0.000126455 -0.000171618 0.000126455 -0.00018065 0.000117423 -0.000189683 0.00010839 -0.000189683 9.93576e-005 -0.000198715 8.12926e-005 -0.000198715 8.12926e-005 -0.000207748 7.22601e-005 -0.000207748 6.32276e-005 -0.000207748 4.51626e-005 -0.000225813 3.61301e-005 -0.00021678 2.70975e-005 -0.000225813 1.8065e-005 -0.000225813 9.03251e-006zm0.716206 -0.72522l0.00885186 0 0 0 -0.000939381 0.0373133 -0.00280008 0.0368165 -0.00460658 0.0363017 -0.00638599 0.0357055 -0.00809313 0.0350823 -0.00977318 0.0344139 -0.011399 0.0337003 -0.0129707 0.0329416 -0.0145243 0.0321196 -0.0160146 0.0312706 -0.0174598 0.0303673 -0.0188599 0.0294279 -0.0202057 0.0284343 -0.0215335 0.0273956 -0.02278 0.0263207 -0.0240084 0.0251826 -0.0251826 0.0240175 -0.0263117 0.022789 -0.0273775 0.0215335 -0.0284343 0.0202148 -0.0294099 0.0188689 -0.0303673 0.0174598 -0.0312615 0.0160237 -0.0321286 0.0145152 -0.0329235 0.0129888 -0.0336913 0.0114081 -0.0344139 0.00977318 -0.0350823 0.00810216 -0.0357055 0.00637695 -0.0362836 0.00461561 -0.0368165 0.00280008 -0.0373133 0.000939381 0 -0.00885186 0.0368617 -0.000939381 0.036383 -0.00276395 0.035832 -0.00456142 0.035272 -0.00628663 0.0346487 -0.00801184 0.0339803 -0.00964672 0.0332758 -0.0112635 0.0325261 -0.0128262 0.0317312 -0.0143527 0.0308822 -0.015825 0.0299879 -0.0172431 0.0290666 -0.0186341 0.028073 -0.0199799 0.0270524 -0.0212625 0.0259865 -0.0225181 0.0248755 -0.0237284 0.0237194 -0.0248755 0.022509 -0.0259956 0.0212625 -0.0270704 0.0199709 -0.028073 0.018625 -0.0290666 0.0172431 -0.030006 0.0158159 -0.0308912 0.0143436 -0.0317222 0.0128262 -0.0325261 0.0112545 -0.0332848 0.00964672 -0.0339984 0.00800281 -0.0346487 0.00629566 -0.035272 0.00455239 -0.03585 0.00276395 -0.036383 0.000939381 -0.0368617 0 0zm0.00885186 0l-0.00885186 0 9.03251e-006 -0.000225813 1.8065e-005 -0.000225813 2.70975e-005 -0.00021678 3.61301e-005 -0.000225813 4.51626e-005 -0.000207748 6.32276e-005 -0.000207748 7.22601e-005 -0.000207748 8.12926e-005 -0.000198715 8.12926e-005 -0.000198715 9.93576e-005 -0.000189683 0.00010839 -0.000189683 0.000117423 -0.00018065 0.000126455 -0.000171618 0.000126455 -0.000162585 0.00014452 -0.000162585 0.00014452 -0.000153553 0.000153553 -0.00014452 0.000162585 -0.00014452 0.000162585 -0.000126455 0.000171618 -0.000126455 0.00018065 -0.000117423 0.000189683 -0.00010839 0.000189683 -9.93576e-005 0.000198715 -8.12926e-005 0.000198715 -8.12926e-005 0.000207748 -7.22601e-005 0.000207748 -6.32276e-005 0.000207748 -4.51626e-005 0.000225813 -3.61301e-005 0.00021678 -2.70975e-005 0.000225813 -1.8065e-005 0.000225813 -9.03251e-006 0.000225813 9.03251e-006 0.000225813 1.8065e-005 0.00021678 2.70975e-005 0.000225813 3.61301e-005 0.000207748 4.51626e-005 0.000207748 6.32276e-005 0.000207748 7.22601e-005 0.000198715 8.12926e-005 0.000198715 8.12926e-005 0.000189683 9.93576e-005 0.000189683 0.00010839 0.00018065 0.000117423 0.000171618 0.000126455 0.000162585 0.000126455 0.000162585 0.00014452 0.000153553 0.00014452 0.00014452 0.000153553 0.00014452 0.000162585 0.000126455 0.000162585 0.000126455 0.000171618 0.000117423 0.00018065 0.00010839 0.000189683 9.93576e-005 0.000189683 8.12926e-005 0.000198715 8.12926e-005 0.000198715 7.22601e-005 0.000207748 6.32276e-005 0.000207748 4.51626e-005 0.000207748 3.61301e-005 0.000225813 2.70975e-005 0.00021678 1.8065e-005 0.000225813 9.03251e-006 0.000225813zm-0.398397 -0.636819l0.00603372 -0.00646728 -0.000984544 -0.000704536 0.02166 0.0116519 0.0212354 0.0123474 0.0207567 0.0130339 0.020269 0.0137204 0.0197993 0.0143527 0.0192754 0.015003 0.0187425 0.0156353 0.0182095 0.0162405 0.0176495 0.0168276 0.0170805 0.0174057 0.0164843 0.0179747 0.0158792 0.0185076 0.015274 0.0190496 0.0146236 0.0195644 0.0139733 0.0200702 0.0133049 0.020549 0.0126184 0.0210187 0.0119319 0.0214703 0.0112003 0.0219129 0.0104687 0.0223374 0.00973705 0.0227439 0.00896025 0.0231323 0.00819249 0.0235116 0.00739763 0.0238639 0.00657567 0.0242162 0.00575371 0.0245504 0.00492272 0.0248484 0.00404657 0.0251646 0.00317944 0.0254356 0.00229426 0.0257065 0.00139101 0.0259594 0.000460658 0.0261853 -0.00885186 0 -0.000460658 -0.0258781 -0.00137294 -0.0256343 -0.00225813 -0.0253994 -0.00314331 -0.0251285 -0.00401044 -0.0248394 -0.00485046 -0.0245594 -0.00568145 -0.0242433 -0.00650341 -0.0239091 -0.0073073 -0.0235749 -0.0080841 -0.0232226 -0.00885186 -0.0228432 -0.00961059 -0.0224729 -0.0103422 -0.0220484 -0.0110739 -0.0216419 -0.0117694 -0.0212174 -0.0124739 -0.0207657 -0.0131423 -0.0202961 -0.0138107 -0.0198173 -0.014443 -0.0193296 -0.0150753 -0.0188147 -0.0156985 -0.0182908 -0.0162856 -0.0177579 -0.0168637 -0.0171889 -0.0174327 -0.0166289 -0.0179928 -0.0160417 -0.0185257 -0.0154366 -0.0190405 -0.0148224 -0.0195464 -0.0141901 -0.0200341 -0.0135397 -0.0205038 -0.0128713 -0.0209645 -0.0122029 -0.0214071 -0.0115074 -0.000984544 -0.000704536zm0.00504917 -0.00717182l-0.00406463 0.00787635 -0.000198715 -0.00010839 -0.000189683 -0.000117423 -0.000189683 -0.000126455 -0.000171618 -0.000135488 -0.000171618 -0.00014452 -0.000153553 -0.00014452 -0.000153553 -0.000162585 -0.00014452 -0.000162585 -0.000126455 -0.000171618 -0.000126455 -0.000171618 -0.000117423 -0.00018065 -0.00010839 -0.00018065 -9.93576e-005 -0.000189683 -9.03251e-005 -0.000198715 -7.22601e-005 -0.000198715 -7.22601e-005 -0.000198715 -6.32276e-005 -0.000207748 -4.51626e-005 -0.000207748 -4.51626e-005 -0.000207748 -2.70975e-005 -0.000207748 -1.8065e-005 -0.00021678 -9.03251e-006 -0.000207748 0 -0.00021678 9.03251e-006 -0.00021678 1.8065e-005 -0.00021678 3.61301e-005 -0.00021678 4.51626e-005 -0.000207748 5.41951e-005 -0.00021678 6.32276e-005 -0.000207748 7.22601e-005 -0.000207748 9.03251e-005 -0.000207748 9.93576e-005 -0.000207748 0.00010839 -0.000198715 0.000117423 -0.000189683 0.000126455 -0.000189683 0.000135488 -0.000171618 0.00014452 -0.000171618 0.00014452 -0.000153553 0.000162585 -0.000153553 0.000162585 -0.00014452 0.000171618 -0.000126455 0.000171618 -0.000126455 0.00018065 -0.000117423 0.00018065 -0.00010839 0.000189683 -9.93576e-005 0.000198715 -9.03251e-005 0.000198715 -7.22601e-005 0.000198715 -7.22601e-005 0.000207748 -6.32276e-005 0.000207748 -4.51626e-005 0.000207748 -4.51626e-005 0.000207748 -2.70975e-005 0.00021678 -1.8065e-005 0.000207748 -9.03251e-006 0.00021678 0 0.00021678 9.03251e-006 0.00021678 1.8065e-005 0.00021678 3.61301e-005 0.000207748 4.51626e-005 0.00021678 5.41951e-005 0.000207748 6.32276e-005 0.000207748 7.22601e-005 0.000207748 9.03251e-005 0.000207748 9.93576e-005zm-0.00397431 -0.00136391l-0.0087796 -0.00110197 0.0073344 -0.00275492 0.000225813 0.000198715 0.00025291 0.000225813 0.000207748 0.000189683 0.000207748 0.000189683 0.000162585 0.000153553 0.000207748 0.00018065 0.000243878 0.000225813 0.000198715 0.000171618 0.000198715 0.00018065 0.000234845 0.00021678 0.000234845 0.000225813 0.000153553 0.00014452 0.000153553 0.00014452 0.000189683 0.000171618 0.000243878 0.00021678 0.000225813 0.00021678 0.000189683 0.00018065 0.00010839 0.00010839 0.000198715 0.000171618 0.000270975 0.00025291 0.000189683 0.00018065 0.000189683 0.00018065 0.000153553 0.00014452 0.00014452 0.000135488 0.000243878 0.00021678 0.000225813 0.00021678 0.000198715 0.000189683 0.000153553 0.00014452 0.000198715 0.00018065 0.000198715 0.000189683 0.000198715 0.00018065 0.000198715 0.000198715 -0.00603372 0.00646728 -0.000198715 -0.00018065 -0.000198715 -0.00018065 -0.000198715 -0.000189683 -0.000198715 -0.00018065 -0.000225813 -0.00021678 -0.000198715 -0.000189683 -0.000153553 -0.00014452 -0.000153553 -0.00014452 -0.000234845 -0.000207748 -0.000225813 -0.00021678 -0.000189683 -0.00018065 -0.000189683 -0.00018065 -0.00010839 -0.00010839 -0.000198715 -0.000171618 -0.000270975 -0.00025291 -0.000189683 -0.00018065 -0.000153553 -0.00014452 -0.000153553 -0.00014452 -0.000189683 -0.000171618 -0.000243878 -0.00021678 -0.000225813 -0.00021678 -0.000162585 -0.000153553 -0.000162585 -0.00014452 -0.000198715 -0.00018065 -0.000198715 -0.000189683 -0.000171618 -0.000153553 -0.000207748 -0.00018065 -0.00025291 -0.000225813 -0.000207748 -0.000189683 -0.000207748 -0.000189683 -0.00018065 -0.000171618 -0.000207748 -0.00018065 0.0073344 -0.00275492zm-0.0014452 -0.00385688l-0.0058892 0.0066118 -0.000162585 -0.000153553 -0.000162585 -0.000162585 -0.00014452 -0.000171618 -0.000135488 -0.000171618 -0.000126455 -0.00018065 -0.000117423 -0.00018065 -0.00010839 -0.000189683 -9.93576e-005 -0.000198715 -8.12926e-005 -0.000189683 -8.12926e-005 -0.000207748 -7.22601e-005 -0.000198715 -5.41951e-005 -0.000207748 -4.51626e-005 -0.000207748 -3.61301e-005 -0.000207748 -2.70975e-005 -0.000207748 -1.8065e-005 -0.00021678 -9.03251e-006 -0.000207748 0 -0.00021678 1.8065e-005 -0.000207748 1.8065e-005 -0.00021678 3.61301e-005 -0.000207748 4.51626e-005 -0.000207748 5.41951e-005 -0.000207748 6.32276e-005 -0.000207748 7.22601e-005 -0.000198715 9.03251e-005 -0.000207748 9.03251e-005 -0.000189683 0.00010839 -0.000198715 0.000117423 -0.000189683 0.000126455 -0.00018065 0.000135488 -0.00018065 0.00014452 -0.000171618 0.000153553 -0.000162585 0.000162585 -0.000162585 0.000171618 -0.00014452 0.000171618 -0.000135488 0.00018065 -0.000126455 0.00018065 -0.000117423 0.000189683 -0.00010839 0.000198715 -9.93576e-005 0.000189683 -8.12926e-005 0.000207748 -8.12926e-005 0.000198715 -7.22601e-005 0.000207748 -5.41951e-005 0.000207748 -4.51626e-005 0.000207748 -3.61301e-005 0.000207748 -2.70975e-005 0.00021678 -1.8065e-005 0.000207748 -9.03251e-006 0.00021678 0 0.000207748 1.8065e-005 0.00021678 1.8065e-005 0.000207748 3.61301e-005 0.000207748 4.51626e-005 0.000207748 5.41951e-005 0.000207748 6.32276e-005 0.000198715 7.22601e-005 0.000207748 9.03251e-005 0.000189683 9.03251e-005 0.000198715 0.00010839 0.000189683 0.000117423 0.00018065 0.000126455 0.00018065 0.000135488 0.000171618 0.00014452zm-0.00507627 0.00996286l0.00399237 -0.00791248 -0.00642212 0.00395624 0 -0.000153553 0 -0.00014452 0 -0.000280008 9.03251e-006 -0.000153553 0 9.03251e-006 0 -0.000280008 9.03251e-006 -0.000135488 0 -0.000135488 9.03251e-006 -0.000126455 0 -0.000117423 1.8065e-005 -0.000298073 0 5.41951e-005 0 -0.00010839 2.70975e-005 -0.000298073 -9.03251e-006 9.03251e-005 0 -9.93576e-005 2.70975e-005 -0.000334203 1.8065e-005 -0.000135488 -9.03251e-006 0.000162585 0 -9.03251e-005 4.51626e-005 -0.000388398 -2.70975e-005 0.00021678 0 -8.12926e-005 1.8065e-005 -8.12926e-005 9.03251e-006 -0.000135488 1.8065e-005 -9.93576e-005 -3.61301e-005 0.000514853 8.12926e-005 -0.000894219 5.41951e-005 -0.000225813 -0.000126455 0.0010568 0 -9.03251e-006 3.61301e-005 -0.000550983 0.0087796 0.00110197 3.61301e-005 -0.000550983 0 9.03251e-006 -0.000126455 0.00109293 3.61301e-005 -0.000189683 8.12926e-005 -0.000840024 -3.61301e-005 0.000587113 0 -2.70975e-005 9.03251e-006 -4.51626e-005 0 2.70975e-005 0 2.70975e-005 -4.51626e-005 0.000343235 2.70975e-005 -0.000261943 0 5.41951e-005 -2.70975e-005 0.000307105 0 2.70975e-005 9.03251e-006 -0.000153553 0 8.12926e-005 -2.70975e-005 0.00028904 9.03251e-006 -9.93576e-005 0 9.03251e-005 -1.8065e-005 0.000270975 0 -6.32276e-005 0 0.000117423 -9.03251e-006 0.00010839 0 0.000117423 -9.03251e-006 0.000135488 0 -2.70975e-005 0 0.000280008 -9.03251e-006 0.000135488 0 9.03251e-006 0 0.00014452 0 0.000153553 -0.00642212 0.00395624zm-0.00242975 -0.00395624l0.00885186 0 -9.03251e-006 0.000225813 -1.8065e-005 0.000225813 -2.70975e-005 0.00021678 -3.61301e-005 0.000225813 -4.51626e-005 0.000207748 -6.32276e-005 0.000207748 -7.22601e-005 0.000207748 -8.12926e-005 0.000198715 -8.12926e-005 0.000198715 -9.93576e-005 0.000189683 -0.00010839 0.000189683 -0.000117423 0.00018065 -0.000126455 0.000171618 -0.000126455 0.000162585 -0.00014452 0.000162585 -0.00014452 0.000153553 -0.000153553 0.00014452 -0.000162585 0.00014452 -0.000162585 0.000126455 -0.000171618 0.000126455 -0.00018065 0.000117423 -0.000189683 0.00010839 -0.000189683 9.93576e-005 -0.000198715 8.12926e-005 -0.000198715 8.12926e-005 -0.000207748 7.22601e-005 -0.000207748 6.32276e-005 -0.000207748 4.51626e-005 -0.000225813 3.61301e-005 -0.00021678 2.70975e-005 -0.000225813 1.8065e-005 -0.000225813 9.03251e-006 -0.000225813 -9.03251e-006 -0.000225813 -1.8065e-005 -0.00021678 -2.70975e-005 -0.000225813 -3.61301e-005 -0.000207748 -4.51626e-005 -0.000207748 -6.32276e-005 -0.000207748 -7.22601e-005 -0.000198715 -8.12926e-005 -0.000198715 -8.12926e-005 -0.000189683 -9.93576e-005 -0.000189683 -0.00010839 -0.00018065 -0.000117423 -0.000171618 -0.000126455 -0.000162585 -0.000126455 -0.000162585 -0.00014452 -0.000153553 -0.00014452 -0.00014452 -0.000153553 -0.00014452 -0.000162585 -0.000126455 -0.000162585 -0.000126455 -0.000171618 -0.000117423 -0.00018065 -0.00010839 -0.000189683 -9.93576e-005 -0.000189683 -8.12926e-005 -0.000198715 -8.12926e-005 -0.000198715 -7.22601e-005 -0.000207748 -6.32276e-005 -0.000207748 -4.51626e-005 -0.000207748 -3.61301e-005 -0.000225813 -2.70975e-005 -0.00021678 -1.8065e-005 -0.000225813 -9.03251e-006 -0.000225813zm-0.0878502 -0.0381262l0.00861702 0.00204135 -0.00286331 -0.00520273 0.00285427 0.000984544 0.00284524 0.00101164 0.00284524 0.00102067 0.00283621 0.00102067 0.00281814 0.00103874 0.00282718 0.00104777 0.00282718 0.00106584 0.00281814 0.00106584 0.00280911 0.0010839 0.00280911 0.00110197 0.00280008 0.00109293 0.00280008 0.00112003 0.00278201 0.00112906 0.00279105 0.0011381 0.00278201 0.00115616 0.00276395 0.00115616 0.00276395 0.00116519 0.00276395 0.00119229 0.00275492 0.00119229 0.00274588 0.00121036 0.00274588 0.00121036 0.00273685 0.00122842 0.00272782 0.00123745 0.00272782 0.00125552 0.00271879 0.00126455 0.00270072 0.00127358 0.00270072 0.00127358 0.00270072 0.00129165 0.00269169 0.00131875 0.00268266 0.00131875 0.00267362 0.00132778 0.00267362 0.00133681 -0.00399237 0.00791248 -0.00263749 -0.00133681 -0.00263749 -0.00130971 -0.00264653 -0.00130068 -0.00265556 -0.00128262 -0.00266459 -0.00127358 -0.00266459 -0.00127358 -0.00268266 -0.00125552 -0.00268266 -0.00124649 -0.00269169 -0.00123745 -0.00269169 -0.00121939 -0.00270072 -0.00121036 -0.00270975 -0.00121036 -0.00270975 -0.00119229 -0.00271879 -0.00117423 -0.00272782 -0.00117423 -0.00272782 -0.00114713 -0.00274588 -0.00115616 -0.00274588 -0.0011381 -0.00273685 -0.00112003 -0.00276395 -0.001111 -0.00276395 -0.00110197 -0.00276395 -0.00109293 -0.00277298 -0.0010839 -0.00277298 -0.00106584 -0.00278201 -0.00106584 -0.00279105 -0.00104777 -0.00279105 -0.00102971 -0.00280008 -0.00102067 -0.00280008 -0.00102067 -0.00280911 -0.00100261 -0.00280911 -0.000993576 -0.00281814 -0.000984544 -0.00286331 -0.00520273zm0.00575371 -0.00316138l-0.0028904 0.00836411 -0.00021678 -8.12926e-005 -0.000198715 -9.03251e-005 -0.000198715 -9.93576e-005 -0.000198715 -0.00010839 -0.00018065 -0.00010839 -0.00018065 -0.000126455 -0.000171618 -0.000135488 -0.000162585 -0.00014452 -0.000162585 -0.00014452 -0.00014452 -0.000153553 -0.00014452 -0.000162585 -0.000126455 -0.000171618 -0.000126455 -0.000171618 -0.000117423 -0.00018065 -9.93576e-005 -0.00018065 -9.93576e-005 -0.000189683 -9.03251e-005 -0.000189683 -8.12926e-005 -0.000198715 -6.32276e-005 -0.000198715 -6.32276e-005 -0.000207748 -5.41951e-005 -0.000207748 -3.61301e-005 -0.000207748 -2.70975e-005 -0.00021678 -2.70975e-005 -0.000207748 -9.03251e-006 -0.00021678 0 -0.00021678 1.8065e-005 -0.00021678 1.8065e-005 -0.000225813 3.61301e-005 -0.00021678 4.51626e-005 -0.00021678 5.41951e-005 -0.00021678 7.22601e-005 -0.00021678 8.12926e-005 -0.00021678 9.03251e-005 -0.000198715 9.93576e-005 -0.000198715 0.00010839 -0.000198715 0.00010839 -0.00018065 0.000126455 -0.00018065 0.000135488 -0.000171618 0.00014452 -0.000162585 0.00014452 -0.000162585 0.000153553 -0.00014452 0.000162585 -0.00014452 0.000171618 -0.000126455 0.000171618 -0.000126455 0.00018065 -0.000117423 0.00018065 -9.93576e-005 0.000189683 -9.93576e-005 0.000189683 -9.03251e-005 0.000198715 -8.12926e-005 0.000198715 -6.32276e-005 0.000207748 -6.32276e-005 0.000207748 -5.41951e-005 0.000207748 -3.61301e-005 0.00021678 -2.70975e-005 0.000207748 -2.70975e-005 0.00021678 -9.03251e-006 0.00021678 0 0.00021678 1.8065e-005 0.000225813 1.8065e-005 0.00021678 3.61301e-005 0.00021678 4.51626e-005 0.00021678 5.41951e-005 0.00021678 7.22601e-005zm0.000794861 -0.0312977l0.00881573 0.000921316 -9.03251e-006 4.51626e-005 -0.000117423 0.00104777 -0.00014452 0.0010839 -0.00014452 0.00106584 -0.000153553 0.00109293 -0.000162585 0.0011381 -0.00018065 0.001111 -0.000171618 0.0011381 -0.000198715 0.00115616 -0.00018065 0.00112906 -0.000198715 0.00118326 -0.00021678 0.00117423 -0.000207748 0.00116519 -0.00021678 0.00118326 -0.00021678 0.00118326 -0.000234845 0.00117423 -0.000225813 0.00116519 -0.000225813 0.00117423 -0.000243878 0.00117423 -0.000234845 0.00114713 -0.000234845 0.00115616 -0.000234845 0.00115616 -0.00025291 0.00112906 -0.000234845 0.001111 -0.000234845 0.00112003 -0.00025291 0.00110197 -0.000225813 0.0010568 -0.000243878 0.00106584 -0.000234845 0.00102971 -0.000225813 0.00102971 -0.000243878 0.00100261 -0.000225813 0.000948414 -0.00021678 0.000939381 -0.00861702 -0.00204135 0.00021678 -0.000921316 0.000225813 -0.000966479 0.000225813 -0.000966479 0.000225813 -0.000975511 0.000234845 -0.00102971 0.000225813 -0.00102971 0.000243878 -0.00107487 0.000234845 -0.00106584 0.000234845 -0.00106584 0.000234845 -0.001111 0.000234845 -0.00112906 0.000234845 -0.00110197 0.000234845 -0.0011381 0.000234845 -0.00114713 0.000225813 -0.0011381 0.000225813 -0.0011381 0.000225813 -0.00116519 0.00021678 -0.0011381 0.00021678 -0.00114713 0.00021678 -0.00114713 0.000207748 -0.00114713 0.000198715 -0.00112003 0.00018065 -0.001111 0.000198715 -0.00114713 0.00018065 -0.00110197 0.000171618 -0.0010839 0.000162585 -0.00109293 0.000162585 -0.00104777 0.000135488 -0.00103874 0.00014452 -0.00104777 0.000126455 -0.000993576 0.000117423 -0.000975511 -9.03251e-006 4.51626e-005zm0.0088067 0.000966479l-0.00879767 -0.00101164 2.70975e-005 -0.000225813 4.51626e-005 -0.00021678 5.41951e-005 -0.00021678 6.32276e-005 -0.00021678 7.22601e-005 -0.000207748 8.12926e-005 -0.000198715 9.93576e-005 -0.000198715 9.93576e-005 -0.000189683 0.00010839 -0.00018065 0.000117423 -0.00018065 0.000126455 -0.000171618 0.000135488 -0.000162585 0.00014452 -0.000162585 0.000153553 -0.00014452 0.000153553 -0.00014452 0.000162585 -0.000135488 0.000171618 -0.000126455 0.00018065 -0.000126455 0.00018065 -0.00010839 0.00018065 -9.93576e-005 0.000198715 -9.93576e-005 0.000189683 -8.12926e-005 0.000207748 -8.12926e-005 0.000198715 -6.32276e-005 0.000207748 -5.41951e-005 0.00021678 -4.51626e-005 0.00021678 -3.61301e-005 0.00021678 -2.70975e-005 0.00021678 -1.8065e-005 0.000225813 0 0.000225813 9.03251e-006 0.000225813 1.8065e-005 0.000225813 2.70975e-005 0.00021678 4.51626e-005 0.00021678 5.41951e-005 0.00021678 6.32276e-005 0.000207748 7.22601e-005 0.000198715 8.12926e-005 0.000198715 9.93576e-005 0.000189683 9.93576e-005 0.00018065 0.00010839 0.00018065 0.000117423 0.000171618 0.000126455 0.000162585 0.000135488 0.000162585 0.00014452 0.00014452 0.000153553 0.00014452 0.000153553 0.000135488 0.000162585 0.000126455 0.000171618 0.000126455 0.00018065 0.00010839 0.00018065 9.93576e-005 0.00018065 9.93576e-005 0.000198715 8.12926e-005 0.000189683 8.12926e-005 0.000207748 6.32276e-005 0.000198715 5.41951e-005 0.000207748 4.51626e-005 0.00021678 3.61301e-005 0.00021678 2.70975e-005 0.00021678 1.8065e-005 0.00021678 0 0.000225813 -9.03251e-006 0.000225813 -1.8065e-005 0.000225813zm-0.0341339 -0.0178573l-0.00191489 -0.00865315 -7.22601e-005 1.8065e-005 0.0021949 -0.000469691 0.00213167 -0.000352268 0.00206845 -0.00025291 0.00204135 -0.000135488 0.00196006 -1.8065e-005 0.00191489 7.22601e-005 0.0018607 0.000189683 0.00178844 0.000280008 0.00172521 0.000388398 0.00168005 0.000487756 0.00160779 0.000587113 0.00150843 0.000659373 0.0014723 0.000749699 0.00139101 0.000849056 0.00130068 0.000912284 0.00122842 0.000975511 0.00114713 0.0010568 0.00107487 0.00112003 0.000966479 0.00116519 0.000912284 0.00122842 0.000812926 0.00129165 0.000722601 0.00130971 0.000623243 0.00132778 0.000569048 0.00137294 0.000469691 0.0014181 0.000388398 0.00142714 0.000298073 0.0014452 0.000225813 0.00146327 0.000126455 0.0014723 5.41951e-005 0.00146327 -2.70975e-005 0.00148133 -0.00010839 0.00148133 -0.00881573 -0.000921316 7.22601e-005 -0.000975511 2.70975e-005 -0.000993576 -3.61301e-005 -0.000975511 -9.03251e-005 -0.000984544 -0.000135488 -0.000939381 -0.000207748 -0.000957446 -0.000243878 -0.000921316 -0.000307105 -0.000894219 -0.000352268 -0.000885186 -0.000424528 -0.000876154 -0.000451626 -0.000840024 -0.000505821 -0.000785829 -0.000550983 -0.000758731 -0.000623243 -0.000731634 -0.000659373 -0.000704536 -0.000713568 -0.000641308 -0.000776796 -0.000632276 -0.000830991 -0.000587113 -0.000867121 -0.000523886 -0.000930349 -0.000478723 -0.00102067 -0.000442593 -0.00106584 -0.000388398 -0.00112003 -0.00032517 -0.00120132 -0.000261943 -0.00126455 -0.000207748 -0.00133681 -0.000135488 -0.00142714 -5.41951e-005 -0.00149036 1.8065e-005 -0.00155359 9.93576e-005 -0.00165295 0.000198715 -0.00171618 0.000280008 -0.00179747 0.000397431 -7.22601e-005 1.8065e-005zm-0.00198715 -0.00863508l0.00205941 0.00861702 -0.000225813 4.51626e-005 -0.00021678 3.61301e-005 -0.000225813 2.70975e-005 -0.00021678 9.03251e-006 -0.000225813 0 -0.00021678 -9.03251e-006 -0.00021678 -1.8065e-005 -0.00021678 -3.61301e-005 -0.000207748 -3.61301e-005 -0.000207748 -5.41951e-005 -0.000207748 -5.41951e-005 -0.000198715 -7.22601e-005 -0.000198715 -8.12926e-005 -0.000198715 -9.03251e-005 -0.000189683 -9.93576e-005 -0.00018065 -0.00010839 -0.00018065 -0.00010839 -0.000171618 -0.000126455 -0.000162585 -0.000135488 -0.000162585 -0.000135488 -0.000153553 -0.000153553 -0.00014452 -0.000153553 -0.00014452 -0.000162585 -0.000126455 -0.000171618 -0.000126455 -0.000171618 -0.000117423 -0.000189683 -0.00010839 -0.000189683 -9.93576e-005 -0.000189683 -8.12926e-005 -0.000207748 -8.12926e-005 -0.000207748 -7.22601e-005 -0.00021678 -5.41951e-005 -0.00021678 -4.51626e-005 -0.000225813 -3.61301e-005 -0.00021678 -2.70975e-005 -0.000225813 -9.03251e-006 -0.00021678 0 -0.000225813 9.03251e-006 -0.00021678 1.8065e-005 -0.00021678 3.61301e-005 -0.00021678 3.61301e-005 -0.000207748 5.41951e-005 -0.000207748 5.41951e-005 -0.000207748 7.22601e-005 -0.000198715 8.12926e-005 -0.000198715 9.03251e-005 -0.000198715 9.93576e-005 -0.000189683 0.00010839 -0.00018065 0.00010839 -0.00018065 0.000126455 -0.000171618 0.000135488 -0.000162585 0.000135488 -0.000162585 0.000153553 -0.000153553 0.000153553 -0.00014452 0.000162585 -0.00014452 0.000171618 -0.000126455 0.000171618 -0.000126455 0.000189683 -0.000117423 0.000189683 -0.00010839 0.000189683 -9.93576e-005 0.000207748 -8.12926e-005 0.000207748 -8.12926e-005 0.00021678 -7.22601e-005 0.00021678 -5.41951e-005zm-0.0867483 0.0367443l0.00151746 -0.00872541 -0.00217684 0.000171618 0.00317041 -0.00106584 0.00318848 -0.0010839 0.00320654 -0.0010839 0.00320654 -0.00109293 0.00322461 -0.00109293 0.00323364 -0.00110197 0.00322461 -0.00109293 0.00322461 -0.00109293 0.00320654 -0.0010839 0.00318848 -0.0010839 0.00316138 -0.00107487 0.00314331 -0.0010568 0.00309815 -0.00103874 0.00307105 -0.00102971 0.00301686 -0.00100261 0.0029717 -0.000984544 0.0029175 -0.000966479 0.00286331 -0.000939381 0.00280008 -0.000903251 0.00271879 -0.000885186 0.00266459 -0.000840024 0.00256523 -0.000821959 0.00249297 -0.000767764 0.00240265 -0.000749699 0.00232136 -0.000695503 0.00220393 -0.000650341 0.00210458 -0.000614211 0.00200522 -0.000560016 0.00189683 -0.000523886 0.00178844 -0.000460658 0.00165295 -0.000406463 0.00154456 -0.000361301 0.00191489 0.00865315 -0.00140004 0.00032517 -0.00154456 0.000370333 -0.00168005 0.000442593 -0.0018065 0.000487756 -0.00193296 0.000541951 -0.00205038 0.000596146 -0.0021678 0.000650341 -0.00226716 0.000677438 -0.00236652 0.000731634 -0.00245684 0.000767764 -0.00254717 0.000803894 -0.00262846 0.000840024 -0.00270072 0.000867121 -0.00278201 0.000903251 -0.00284524 0.000939381 -0.00289944 0.000948414 -0.00295363 0.000984544 -0.00301686 0.00100261 -0.00305299 0.00102971 -0.00309815 0.00103874 -0.00312525 0.0010568 -0.00316138 0.0010568 -0.00318848 0.0010839 -0.00320654 0.0010839 -0.00320654 0.00109293 -0.00322461 0.00109293 -0.00323364 0.00110197 -0.00322461 0.00109293 -0.00322461 0.00109293 -0.00320654 0.0010839 -0.00318848 0.0010839 -0.00317041 0.00106584 -0.00217684 0.000171618zm-0.000659373 -0.00855379l0.00283621 0.00838217 -0.00021678 6.32276e-005 -0.00021678 6.32276e-005 -0.00021678 3.61301e-005 -0.000225813 3.61301e-005 -0.00021678 1.8065e-005 -0.00021678 1.8065e-005 -0.00021678 0 -0.00021678 -1.8065e-005 -0.00021678 -1.8065e-005 -0.000207748 -3.61301e-005 -0.000207748 -3.61301e-005 -0.000207748 -5.41951e-005 -0.000207748 -6.32276e-005 -0.000198715 -6.32276e-005 -0.000198715 -8.12926e-005 -0.000189683 -9.03251e-005 -0.000189683 -9.93576e-005 -0.00018065 -0.00010839 -0.00018065 -0.000117423 -0.000171618 -0.000126455 -0.000171618 -0.000126455 -0.000153553 -0.00014452 -0.000153553 -0.000153553 -0.000153553 -0.000153553 -0.000135488 -0.000162585 -0.000135488 -0.000171618 -0.000117423 -0.00018065 -0.000117423 -0.000189683 -0.00010839 -0.000189683 -9.93576e-005 -0.000198715 -8.12926e-005 -0.000207748 -8.12926e-005 -0.00021678 -6.32276e-005 -0.00021678 -6.32276e-005 -0.00021678 -3.61301e-005 -0.00021678 -3.61301e-005 -0.000225813 -1.8065e-005 -0.00021678 -1.8065e-005 -0.00021678 0 -0.00021678 1.8065e-005 -0.00021678 1.8065e-005 -0.00021678 3.61301e-005 -0.000207748 3.61301e-005 -0.000207748 5.41951e-005 -0.000207748 6.32276e-005 -0.000207748 6.32276e-005 -0.000198715 8.12926e-005 -0.000198715 9.03251e-005 -0.000189683 9.93576e-005 -0.000189683 0.00010839 -0.00018065 0.000117423 -0.00018065 0.000126455 -0.000171618 0.000126455 -0.000171618 0.00014452 -0.000153553 0.000153553 -0.000153553 0.000153553 -0.000153553 0.000162585 -0.000135488 0.000171618 -0.000135488 0.00018065 -0.000117423 0.000189683 -0.000117423 0.000189683 -0.00010839 0.000198715 -9.93576e-005 0.000207748 -8.12926e-005 0.00021678 -8.12926e-005zm-0.122761 -0.00280008l0 -0.00885186 0 0 0.0040014 9.03251e-006 0.0040014 4.51626e-005 0.00398334 6.32276e-005 0.00397431 8.12926e-005 0.00399237 0.000117423 0.00396527 0.000135488 0.00395624 0.000162585 0.00395624 0.00018065 0.00395624 0.00021678 0.00393818 0.000225813 0.00393818 0.00025291 0.00393818 0.000280008 0.00392914 0.000298073 0.00391108 0.00032517 0.00391108 0.000334203 0.00391108 0.000361301 0.00389301 0.000379366 0.00390205 0.000415496 0.00388398 0.000415496 0.00388398 0.000442593 0.00387495 0.000460658 0.00387495 0.000487756 0.00385688 0.000496788 0.00385688 0.000514853 0.00385688 0.000541951 0.00383882 0.000550983 0.00383882 0.000569048 0.00383882 0.000596146 0.00382979 0.000605178 0.00382075 0.000623243 0.00381172 0.000641308 0.00381172 0.000650341 -0.00151746 0.00872541 -0.00377559 -0.000650341 -0.00377559 -0.000623243 -0.00378462 -0.000623243 -0.00379366 -0.000605178 -0.00378462 -0.000578081 -0.00380269 -0.000569048 -0.00380269 -0.000550983 -0.00380269 -0.000523886 -0.00382075 -0.000514853 -0.00382075 -0.000496788 -0.00382075 -0.000469691 -0.00383882 -0.000460658 -0.00382979 -0.000442593 -0.00384785 -0.000415496 -0.00384785 -0.000397431 -0.00385688 -0.000379366 -0.00385688 -0.000361301 -0.00385688 -0.000334203 -0.00387495 -0.000307105 -0.00387495 -0.000298073 -0.00388398 -0.000280008 -0.00388398 -0.00025291 -0.00388398 -0.000225813 -0.00390205 -0.000198715 -0.00390205 -0.00018065 -0.00392011 -0.000162585 -0.00391108 -0.000135488 -0.00392011 -0.000117423 -0.00392011 -8.12926e-005 -0.00394721 -6.32276e-005 -0.00392914 -4.51626e-005 -0.00394721 -9.03251e-006 0 0zm0 -0.00885186l0 0.00885186 -0.000225813 -9.03251e-006 -0.000225813 -1.8065e-005 -0.00021678 -2.70975e-005 -0.000225813 -3.61301e-005 -0.000207748 -4.51626e-005 -0.000207748 -6.32276e-005 -0.000207748 -7.22601e-005 -0.000198715 -8.12926e-005 -0.000198715 -8.12926e-005 -0.000189683 -9.93576e-005 -0.000189683 -0.00010839 -0.00018065 -0.000117423 -0.000171618 -0.000126455 -0.000162585 -0.000126455 -0.000162585 -0.00014452 -0.000153553 -0.00014452 -0.00014452 -0.000153553 -0.00014452 -0.000162585 -0.000126455 -0.000162585 -0.000126455 -0.000171618 -0.000117423 -0.00018065 -0.00010839 -0.000189683 -9.93576e-005 -0.000189683 -8.12926e-005 -0.000198715 -8.12926e-005 -0.000198715 -7.22601e-005 -0.000207748 -6.32276e-005 -0.000207748 -4.51626e-005 -0.000207748 -3.61301e-005 -0.000225813 -2.70975e-005 -0.00021678 -1.8065e-005 -0.000225813 -9.03251e-006 -0.000225813 9.03251e-006 -0.000225813 1.8065e-005 -0.000225813 2.70975e-005 -0.00021678 3.61301e-005 -0.000225813 4.51626e-005 -0.000207748 6.32276e-005 -0.000207748 7.22601e-005 -0.000207748 8.12926e-005 -0.000198715 8.12926e-005 -0.000198715 9.93576e-005 -0.000189683 0.00010839 -0.000189683 0.000117423 -0.00018065 0.000126455 -0.000171618 0.000126455 -0.000162585 0.00014452 -0.000162585 0.00014452 -0.000153553 0.000153553 -0.00014452 0.000162585 -0.00014452 0.000162585 -0.000126455 0.000171618 -0.000126455 0.00018065 -0.000117423 0.000189683 -0.00010839 0.000189683 -9.93576e-005 0.000198715 -8.12926e-005 0.000198715 -8.12926e-005 0.000207748 -7.22601e-005 0.000207748 -6.32276e-005 0.000207748 -4.51626e-005 0.000225813 -3.61301e-005 0.00021678 -2.70975e-005 0.000225813 -1.8065e-005 0.000225813 -9.03251e-006z"/>
   </g>
   <path class="fil0" d="M0.769173 1.53387c0.422405,0 0.764747,-0.342486 0.764747,-0.7649 0,-0.330337 -0.209509,-0.61189 -0.503102,-0.718816l0.00308009 0.0172882c0.283413,0.106837 0.485046,0.380675 0.485046,0.701528 0,0.414087 -0.335702,0.749789 -0.749771,0.749789 -0.414077,0 -0.749635,-0.335702 -0.749635,-0.749789 0,-0.41396 0.335558,-0.74959 0.749635,-0.74959 0.0445664,0 0.0884012,0.00385688 0.130962,0.0113448l0.0259233 -0.0103332c-0.0506001,-0.0104145 -0.103043,-0.0159695 -0.156886,-0.0159695 -0.42227,0 -0.764747,0.34226 -0.764747,0.764548 0,0.422414 0.342477,0.7649 0.764747,0.7649z"/>
   <g>
    <path class="fil1" d="M1.52949 0.768974l0.00885186 0 0 0 -0.000993576 0.0395895 -0.0029717 0.0390566 -0.00488659 0.0385056 -0.00677438 0.0378824 -0.00858089 0.037223 -0.0103693 0.0365094 -0.0120945 0.0357417 -0.0137655 0.0349378 -0.0154004 0.0340797 -0.0169902 0.0331764 -0.0185167 0.0322099 -0.020007 0.0312164 -0.0214432 0.0301686 -0.0228342 0.0290576 -0.024171 0.0279195 -0.0254627 0.0267182 -0.0267091 0.0254717 -0.0279105 0.02418 -0.0290576 0.0228432 -0.0301596 0.0214432 -0.0311983 0.020007 -0.032219 0.0185347 -0.0331584 0.0169902 -0.0340797 0.0154004 -0.0349287 0.0137746 -0.0357417 0.0121036 -0.0365094 0.0103693 -0.037214 0.00858089 -0.0378824 0.00677438 -0.0385056 0.00489562 -0.0390566 0.0029717 -0.0395805 0.000993576 0 -0.00885186 0.0391288 -0.000993576 0.038623 -0.00293557 0.038054 -0.00484143 0.0374488 -0.00668406 0.0367804 -0.00849056 0.0360759 -0.0102429 0.0353262 -0.011959 0.0345313 -0.013612 0.0336822 -0.0152378 0.032779 -0.0167914 0.0318396 -0.0183179 0.0308551 -0.0197722 0.0297983 -0.0212083 0.0287324 -0.0225722 0.0275853 -0.0239091 0.026402 -0.0251826 0.0251736 -0.0264111 0.0239 -0.0275943 0.0225632 -0.0287324 0.0212083 -0.0298073 0.0197722 -0.0308551 0.0182999 -0.0318486 0.0167914 -0.0327971 0.0152198 -0.0336822 0.013621 -0.0345223 0.01195 -0.0353442 0.0102429 -0.0360759 0.00849056 -0.0367894 0.00668406 -0.0374488 0.00483239 -0.038054 0.00293557 -0.038623 0.000993576 -0.0391379 0 0zm0.00885186 0l-0.00885186 0 9.03251e-006 -0.000225813 1.8065e-005 -0.000225813 2.70975e-005 -0.00021678 3.61301e-005 -0.000225813 4.51626e-005 -0.000207748 6.32276e-005 -0.000207748 7.22601e-005 -0.000207748 8.12926e-005 -0.000198715 8.12926e-005 -0.000198715 9.93576e-005 -0.000189683 0.00010839 -0.000189683 0.000117423 -0.00018065 0.000126455 -0.000171618 0.000126455 -0.000162585 0.00014452 -0.000162585 0.00014452 -0.000153553 0.000153553 -0.00014452 0.000162585 -0.00014452 0.000162585 -0.000126455 0.000171618 -0.000126455 0.00018065 -0.000117423 0.000189683 -0.00010839 0.000189683 -9.93576e-005 0.000198715 -8.12926e-005 0.000198715 -8.12926e-005 0.000207748 -7.22601e-005 0.000207748 -6.32276e-005 0.000207748 -4.51626e-005 0.000225813 -3.61301e-005 0.00021678 -2.70975e-005 0.000225813 -1.8065e-005 0.000225813 -9.03251e-006 0.000225813 9.03251e-006 0.000225813 1.8065e-005 0.00021678 2.70975e-005 0.000225813 3.61301e-005 0.000207748 4.51626e-005 0.000207748 6.32276e-005 0.000207748 7.22601e-005 0.000198715 8.12926e-005 0.000198715 8.12926e-005 0.000189683 9.93576e-005 0.000189683 0.00010839 0.00018065 0.000117423 0.000171618 0.000126455 0.000162585 0.000126455 0.000162585 0.00014452 0.000153553 0.00014452 0.00014452 0.000153553 0.00014452 0.000162585 0.000126455 0.000162585 0.000126455 0.000171618 0.000117423 0.00018065 0.00010839 0.000189683 9.93576e-005 0.000189683 8.12926e-005 0.000198715 8.12926e-005 0.000198715 7.22601e-005 0.000207748 6.32276e-005 0.000207748 4.51626e-005 0.000207748 3.61301e-005 0.000225813 2.70975e-005 0.00021678 1.8065e-005 0.000225813 9.03251e-006 0.000225813zm-0.503165 -0.719593l-0.00872541 0.00155359 0.00588017 -0.00494078 0.0274317 0.0105951 0.0269169 0.0116068 0.0263659 0.0125823 0.0258149 0.0135307 0.0252097 0.0144882 0.0246136 0.0153824 0.0239723 0.0162856 0.0233219 0.0171527 0.0226264 0.0179837 0.0219309 0.0188147 0.0212083 0.0196006 0.0204496 0.0203864 0.0196909 0.0211451 0.018887 0.0218496 0.018065 0.0225722 0.017225 0.0232497 0.0163759 0.0239091 0.0154727 0.0245323 0.0145604 0.0251646 0.0136301 0.0257427 0.0126726 0.0263117 0.011679 0.0268446 0.0106945 0.0273775 0.00965576 0.0278563 0.00861702 0.0283531 0.00753312 0.0287866 0.00644018 0.0292202 0.00532015 0.0296176 0.00418205 0.029997 0.00301686 0.0303492 0.00181554 0.0307015 0.000614211 0.0309906 -0.00885186 0 -0.000614211 -0.0306473 -0.00179747 -0.0303402 -0.00298073 -0.030006 -0.00412786 -0.0296537 -0.00526595 -0.0292744 -0.00636792 -0.0288769 -0.00744279 -0.0284614 -0.00850863 -0.0280098 -0.00954737 -0.0275492 -0.010568 -0.0270524 -0.0115526 -0.0265375 -0.0125281 -0.0260046 -0.0134675 -0.0254536 -0.0143978 -0.0248575 -0.015292 -0.0242613 -0.0161772 -0.0236381 -0.0170263 -0.0229787 -0.0178663 -0.0223013 -0.0186702 -0.0216148 -0.019456 -0.0208922 -0.0202148 -0.0201515 -0.0209735 -0.0193838 -0.021678 -0.0185979 -0.0223735 -0.017785 -0.023051 -0.016954 -0.0237013 -0.0160869 -0.0243246 -0.0152198 -0.0249207 -0.0143075 -0.0255078 -0.0133862 -0.0260769 -0.0124378 -0.0265917 -0.0114623 -0.0271246 -0.0104687 0.00588017 -0.00494078zm-0.00284524 -0.00338719l-0.00303492 0.00832798 -0.000207748 -8.12926e-005 -0.000207748 -9.03251e-005 -0.000198715 -0.00010839 -0.000189683 -0.00010839 -0.000189683 -0.000117423 -0.000171618 -0.000126455 -0.000171618 -0.000135488 -0.000162585 -0.00014452 -0.000153553 -0.000153553 -0.00014452 -0.000153553 -0.000135488 -0.000171618 -0.000135488 -0.000162585 -0.000117423 -0.00018065 -0.00010839 -0.00018065 -0.00010839 -0.000189683 -9.03251e-005 -0.000189683 -9.03251e-005 -0.000189683 -7.22601e-005 -0.000198715 -6.32276e-005 -0.000207748 -6.32276e-005 -0.000207748 -4.51626e-005 -0.000207748 -3.61301e-005 -0.000207748 -2.70975e-005 -0.00021678 -1.8065e-005 -0.000207748 0 -0.00021678 0 -0.000225813 1.8065e-005 -0.00021678 2.70975e-005 -0.00021678 3.61301e-005 -0.00021678 4.51626e-005 -0.00021678 6.32276e-005 -0.00021678 7.22601e-005 -0.00021678 8.12926e-005 -0.000207748 9.03251e-005 -0.000207748 0.00010839 -0.000198715 0.00010839 -0.000189683 0.000117423 -0.000189683 0.000126455 -0.000171618 0.000135488 -0.000171618 0.00014452 -0.000162585 0.000153553 -0.000153553 0.000153553 -0.00014452 0.000171618 -0.000135488 0.000162585 -0.000135488 0.00018065 -0.000117423 0.00018065 -0.00010839 0.000189683 -0.00010839 0.000189683 -9.03251e-005 0.000189683 -9.03251e-005 0.000198715 -7.22601e-005 0.000207748 -6.32276e-005 0.000207748 -6.32276e-005 0.000207748 -4.51626e-005 0.000207748 -3.61301e-005 0.00021678 -2.70975e-005 0.000207748 -1.8065e-005 0.00021678 0 0.000225813 0 0.00021678 1.8065e-005 0.00021678 2.70975e-005 0.00021678 3.61301e-005 0.00021678 4.51626e-005 0.00021678 6.32276e-005 0.00021678 7.22601e-005zm-0.00280008 0.022229l-0.00308009 -0.0172882 0.00872541 -0.00155359 0.00308009 0.0172882 -0.00592533 0.00492272 -0.00280008 -0.00336913zm0 0l0.00872541 -0.00155359 3.61301e-005 0.000225813 1.8065e-005 0.000225813 9.03251e-006 0.00021678 0 0.000225813 -9.03251e-006 0.00021678 -1.8065e-005 0.00021678 -3.61301e-005 0.00021678 -4.51626e-005 0.00021678 -5.41951e-005 0.000207748 -6.32276e-005 0.000198715 -7.22601e-005 0.000207748 -8.12926e-005 0.000198715 -9.03251e-005 0.000189683 -9.93576e-005 0.000189683 -0.00010839 0.00018065 -0.000117423 0.00018065 -0.000126455 0.000171618 -0.000135488 0.000162585 -0.00014452 0.000162585 -0.00014452 0.00014452 -0.000153553 0.000153553 -0.000171618 0.000135488 -0.000162585 0.000126455 -0.00018065 0.000126455 -0.000189683 0.00010839 -0.000189683 0.00010839 -0.000189683 9.03251e-005 -0.000207748 9.03251e-005 -0.000207748 7.22601e-005 -0.000207748 7.22601e-005 -0.00021678 5.41951e-005 -0.000225813 4.51626e-005 -0.000225813 3.61301e-005 -0.000225813 1.8065e-005 -0.00021678 9.03251e-006 -0.000225813 0 -0.00021678 -9.03251e-006 -0.00021678 -1.8065e-005 -0.00021678 -3.61301e-005 -0.00021678 -4.51626e-005 -0.000207748 -5.41951e-005 -0.000198715 -6.32276e-005 -0.000207748 -7.22601e-005 -0.000198715 -8.12926e-005 -0.000189683 -9.03251e-005 -0.000189683 -9.93576e-005 -0.00018065 -0.00010839 -0.00018065 -0.000117423 -0.000171618 -0.000126455 -0.000162585 -0.000135488 -0.000162585 -0.00014452 -0.00014452 -0.00014452 -0.000153553 -0.000153553 -0.000135488 -0.000171618 -0.000126455 -0.000162585 -0.000126455 -0.00018065 -0.00010839 -0.000189683 -0.00010839 -0.000189683 -9.03251e-005 -0.000189683 -9.03251e-005 -0.000207748 -7.22601e-005 -0.000207748 -7.22601e-005 -0.000207748 -5.41951e-005 -0.00021678 -4.51626e-005 -0.000225813zm0.493835 0.700751l-0.00885186 0 0 0 -0.000587113 -0.0297712 -0.00173424 -0.0294641 -0.00287234 -0.0291479 -0.00396527 -0.0288137 -0.00506724 -0.0284434 -0.00613308 -0.028064 -0.00717182 -0.0276576 -0.00819249 -0.027233 -0.0091951 -0.0267814 -0.0101706 -0.0263207 -0.011119 -0.0258059 -0.0120674 -0.0253181 -0.0129797 -0.0247671 -0.0138649 -0.0242162 -0.014732 -0.0236381 -0.0155901 -0.0230329 -0.016403 -0.0224097 -0.017216 -0.0217593 -0.0179928 -0.0210999 -0.0187515 -0.0204135 -0.0194922 -0.0196999 -0.0202148 -0.0189592 -0.0208922 -0.0182186 -0.0215787 -0.0174327 -0.02222 -0.0166379 -0.0228613 -0.0158159 -0.0234665 -0.0149759 -0.0240445 -0.0141178 -0.0246136 -0.0132236 -0.0251465 -0.0123203 -0.0256704 -0.011381 -0.0261762 -0.0104416 0.00312525 -0.00829185 0.0264833 0.010568 0.0259775 0.0115255 0.0254536 0.0124649 0.0249026 0.0133862 0.0243336 0.0142804 0.0237374 0.0151566 0.0231323 0.0159966 0.022491 0.0168366 0.0218316 0.0176495 0.0211451 0.0184173 0.0204496 0.0191941 0.019727 0.0199348 0.0189683 0.0206483 0.0182095 0.0213529 0.0174147 0.0220122 0.0166018 0.0226806 0.0157708 0.0233039 0.0149127 0.0239271 0.0140275 0.0244871 0.0131242 0.0250743 0.012212 0.0256072 0.0112635 0.0261311 0.0102971 0.0266278 0.00930349 0.0271066 0.00828281 0.0275582 0.00726214 0.0279827 0.00620534 0.0284073 0.00512143 0.0287866 0.00401947 0.029157 0.00290847 0.0294912 0.00175231 0.0298073 0.000587113 0.0301144 0 0zm-0.00885186 0l0.00885186 0 -9.03251e-006 0.000225813 -1.8065e-005 0.000225813 -2.70975e-005 0.00021678 -3.61301e-005 0.000225813 -4.51626e-005 0.000207748 -6.32276e-005 0.000207748 -7.22601e-005 0.000207748 -8.12926e-005 0.000198715 -8.12926e-005 0.000198715 -9.93576e-005 0.000189683 -0.00010839 0.000189683 -0.000117423 0.00018065 -0.000126455 0.000171618 -0.000126455 0.000162585 -0.00014452 0.000162585 -0.00014452 0.000153553 -0.000153553 0.00014452 -0.000162585 0.00014452 -0.000162585 0.000126455 -0.000171618 0.000126455 -0.00018065 0.000117423 -0.000189683 0.00010839 -0.000189683 9.93576e-005 -0.000198715 8.12926e-005 -0.000198715 8.12926e-005 -0.000207748 7.22601e-005 -0.000207748 6.32276e-005 -0.000207748 4.51626e-005 -0.000225813 3.61301e-005 -0.00021678 2.70975e-005 -0.000225813 1.8065e-005 -0.000225813 9.03251e-006 -0.000225813 -9.03251e-006 -0.000225813 -1.8065e-005 -0.00021678 -2.70975e-005 -0.000225813 -3.61301e-005 -0.000207748 -4.51626e-005 -0.000207748 -6.32276e-005 -0.000207748 -7.22601e-005 -0.000198715 -8.12926e-005 -0.000198715 -8.12926e-005 -0.000189683 -9.93576e-005 -0.000189683 -0.00010839 -0.00018065 -0.000117423 -0.000171618 -0.000126455 -0.000162585 -0.000126455 -0.000162585 -0.00014452 -0.000153553 -0.00014452 -0.00014452 -0.000153553 -0.00014452 -0.000162585 -0.000126455 -0.000162585 -0.000126455 -0.000171618 -0.000117423 -0.00018065 -0.00010839 -0.000189683 -9.93576e-005 -0.000189683 -8.12926e-005 -0.000198715 -8.12926e-005 -0.000198715 -7.22601e-005 -0.000207748 -6.32276e-005 -0.000207748 -4.51626e-005 -0.000207748 -3.61301e-005 -0.000225813 -2.70975e-005 -0.00021678 -1.8065e-005 -0.000225813 -9.03251e-006 -0.000225813zm-0.745345 0.754215l0 -0.00885186 0 0 0.038352 -0.000975511 0.0378643 -0.00288137 0.0372952 -0.00473304 0.0366991 -0.0065576 0.0360578 -0.00831894 0.0353623 -0.0100442 0.0346397 -0.0117152 0.0338448 -0.013341 0.0330138 -0.0149398 0.0321377 -0.0164572 0.0312073 -0.0179476 0.0302499 -0.0193838 0.0292111 -0.0207838 0.0281634 -0.0221297 0.0270433 -0.0234303 0.0258872 -0.0246768 0.0246768 -0.0258872 0.0234303 -0.0270433 0.0221297 -0.0281634 0.0207838 -0.0292202 0.0193838 -0.0302499 0.0179476 -0.0312073 0.0164572 -0.0321377 0.0149398 -0.0330138 0.013341 -0.0338448 0.0117152 -0.0346397 0.0100442 -0.0353623 0.00831894 -0.0360578 0.0065576 -0.0367081 0.00473304 -0.0372952 0.00288137 -0.0378553 0.000975511 -0.0383611 0.00885186 0 -0.000975511 0.0388127 -0.0029175 0.0382888 -0.00478723 0.0377469 -0.00664793 0.0371417 -0.00840927 0.0364914 -0.0101706 0.0357958 -0.0118597 0.0350371 -0.0135036 0.0342603 -0.0151024 0.0334113 -0.016656 0.032517 -0.0181644 0.0315867 -0.0196186 0.0305931 -0.0210187 0.0295815 -0.0224006 0.0284885 -0.0237013 0.0273685 -0.0249659 0.0261943 -0.0261943 0.0249659 -0.0273685 0.0237013 -0.0284885 0.0224006 -0.0295724 0.0210187 -0.0305931 0.0196186 -0.0315867 0.0181644 -0.032517 0.016656 -0.0334113 0.0151024 -0.0342603 0.0135036 -0.0350371 0.0118597 -0.0357958 0.0101706 -0.0364914 0.00840927 -0.0371327 0.00664793 -0.0377469 0.00478723 -0.0382979 0.0029175 -0.0388037 0.000975511 0 0zm0 -0.00885186l0 0.00885186 -0.000225813 -9.03251e-006 -0.000225813 -1.8065e-005 -0.00021678 -2.70975e-005 -0.000225813 -3.61301e-005 -0.000207748 -4.51626e-005 -0.000207748 -6.32276e-005 -0.000207748 -7.22601e-005 -0.000198715 -8.12926e-005 -0.000198715 -8.12926e-005 -0.000189683 -9.93576e-005 -0.000189683 -0.00010839 -0.00018065 -0.000117423 -0.000171618 -0.000126455 -0.000162585 -0.000126455 -0.000162585 -0.00014452 -0.000153553 -0.00014452 -0.00014452 -0.000153553 -0.00014452 -0.000162585 -0.000126455 -0.000162585 -0.000126455 -0.000171618 -0.000117423 -0.00018065 -0.00010839 -0.000189683 -9.93576e-005 -0.000189683 -8.12926e-005 -0.000198715 -8.12926e-005 -0.000198715 -7.22601e-005 -0.000207748 -6.32276e-005 -0.000207748 -4.51626e-005 -0.000207748 -3.61301e-005 -0.000225813 -2.70975e-005 -0.00021678 -1.8065e-005 -0.000225813 -9.03251e-006 -0.000225813 9.03251e-006 -0.000225813 1.8065e-005 -0.000225813 2.70975e-005 -0.00021678 3.61301e-005 -0.000225813 4.51626e-005 -0.000207748 6.32276e-005 -0.000207748 7.22601e-005 -0.000207748 8.12926e-005 -0.000198715 8.12926e-005 -0.000198715 9.93576e-005 -0.000189683 0.00010839 -0.000189683 0.000117423 -0.00018065 0.000126455 -0.000171618 0.000126455 -0.000162585 0.00014452 -0.000162585 0.00014452 -0.000153553 0.000153553 -0.00014452 0.000162585 -0.00014452 0.000162585 -0.000126455 0.000171618 -0.000126455 0.00018065 -0.000117423 0.000189683 -0.00010839 0.000189683 -9.93576e-005 0.000198715 -8.12926e-005 0.000198715 -8.12926e-005 0.000207748 -7.22601e-005 0.000207748 -6.32276e-005 0.000207748 -4.51626e-005 0.000225813 -3.61301e-005 0.00021678 -2.70975e-005 0.000225813 -1.8065e-005 0.000225813 -9.03251e-006zm-0.754061 -0.745363l0.00885186 0 0 0 0.000975511 0.0383611 0.00287234 0.0378553 0.00474207 0.0372952 0.00654857 0.0367081 0.00831894 0.0360578 0.0100442 0.0353713 0.0117061 0.0346307 0.0133501 0.0338448 0.0149217 0.0330138 0.0164482 0.0321377 0.0179386 0.0312164 0.0193838 0.0302409 0.0207838 0.0292292 0.0221116 0.0281543 0.0234303 0.0270433 0.0246678 0.0258872 0.0258872 0.0246768 0.0270343 0.0234303 0.0281543 0.0221297 0.0292111 0.0207838 0.0302409 0.0193838 0.0311983 0.0179476 0.0321377 0.0164572 0.0330048 0.0149398 0.0338358 0.013341 0.0346397 0.0117152 0.0353533 0.0100442 0.0360578 0.00831894 0.0366991 0.0065576 0.0372952 0.00473304 0.0378643 0.00288137 0.038352 0.000975511 0 0.00885186 -0.0388037 -0.000975511 -0.0382979 -0.0029175 -0.0377469 -0.00478723 -0.0371327 -0.00664793 -0.0364914 -0.00840927 -0.0357868 -0.0101706 -0.0350371 -0.0118597 -0.0342513 -0.0135036 -0.0334022 -0.0151024 -0.032517 -0.016656 -0.0315777 -0.0181644 -0.0305841 -0.0196186 -0.0295724 -0.0210187 -0.0284795 -0.0224006 -0.0273595 -0.0237013 -0.0261943 -0.0249659 -0.0249568 -0.0261943 -0.0237013 -0.0273685 -0.0223826 -0.0284976 -0.0210187 -0.0295724 -0.0196186 -0.0306022 -0.0181554 -0.0315777 -0.0166469 -0.032517 -0.0151024 -0.0334113 -0.0134946 -0.0342603 -0.0118507 -0.0350461 -0.0101706 -0.0357868 -0.00840927 -0.0364914 -0.0066389 -0.0371417 -0.00479626 -0.0377469 -0.00290847 -0.0382888 -0.000975511 -0.0388127 0 0zm0.00885186 0l-0.00885186 0 9.03251e-006 -0.000225813 1.8065e-005 -0.000225813 2.70975e-005 -0.00021678 3.61301e-005 -0.000225813 4.51626e-005 -0.000207748 6.32276e-005 -0.000207748 7.22601e-005 -0.000207748 8.12926e-005 -0.000198715 8.12926e-005 -0.000198715 9.93576e-005 -0.000189683 0.00010839 -0.000189683 0.000117423 -0.00018065 0.000126455 -0.000171618 0.000126455 -0.000162585 0.00014452 -0.000162585 0.00014452 -0.000153553 0.000153553 -0.00014452 0.000162585 -0.00014452 0.000162585 -0.000126455 0.000171618 -0.000126455 0.00018065 -0.000117423 0.000189683 -0.00010839 0.000189683 -9.93576e-005 0.000198715 -8.12926e-005 0.000198715 -8.12926e-005 0.000207748 -7.22601e-005 0.000207748 -6.32276e-005 0.000207748 -4.51626e-005 0.000225813 -3.61301e-005 0.00021678 -2.70975e-005 0.000225813 -1.8065e-005 0.000225813 -9.03251e-006 0.000225813 9.03251e-006 0.000225813 1.8065e-005 0.00021678 2.70975e-005 0.000225813 3.61301e-005 0.000207748 4.51626e-005 0.000207748 6.32276e-005 0.000207748 7.22601e-005 0.000198715 8.12926e-005 0.000198715 8.12926e-005 0.000189683 9.93576e-005 0.000189683 0.00010839 0.00018065 0.000117423 0.000171618 0.000126455 0.000162585 0.000126455 0.000162585 0.00014452 0.000153553 0.00014452 0.00014452 0.000153553 0.00014452 0.000162585 0.000126455 0.000162585 0.000126455 0.000171618 0.000117423 0.00018065 0.00010839 0.000189683 9.93576e-005 0.000189683 8.12926e-005 0.000198715 8.12926e-005 0.000198715 7.22601e-005 0.000207748 6.32276e-005 0.000207748 4.51626e-005 0.000207748 3.61301e-005 0.000225813 2.70975e-005 0.00021678 1.8065e-005 0.000225813 9.03251e-006 0.000225813zm0.745209 -0.754016l0 0.00885186 0 0 -0.038352 0.000975511 -0.0378643 0.00287234 -0.0372952 0.00474207 -0.0366991 0.00654857 -0.0360578 0.00832798 -0.0353533 0.0100351 -0.0346397 0.0117152 -0.0338358 0.013341 -0.0330048 0.0149307 -0.0321377 0.0164572 -0.0311983 0.0179386 -0.0302409 0.0193838 -0.0292111 0.0207838 -0.0281543 0.0221116 -0.0270343 0.0234303 -0.0258872 0.0246768 -0.0246678 0.0258781 -0.0234303 0.0270343 -0.0221116 0.0281543 -0.0207838 0.0292111 -0.0193838 0.0302409 -0.0179386 0.0311983 -0.0164482 0.0321377 -0.0149307 0.0330048 -0.013341 0.0338268 -0.0117061 0.0346307 -0.0100442 0.0353533 -0.00831894 0.0360488 -0.00654857 0.0366901 -0.00474207 0.0372862 -0.00287234 0.0378553 -0.000975511 0.038343 -0.00885186 0 0.000975511 -0.0387946 0.00290847 -0.0382888 0.00479626 -0.0377378 0.0066389 -0.0371236 0.00840927 -0.0364823 0.0101706 -0.0357868 0.0118507 -0.0350281 0.0135036 -0.0342423 0.0150933 -0.0334022 0.0166469 -0.032517 0.0181554 -0.0315777 0.0196186 -0.0305841 0.0210187 -0.0295724 0.0223826 -0.0284795 0.0237013 -0.0273595 0.0249568 -0.0261853 0.0261943 -0.0249659 0.0273595 -0.0237013 0.0284795 -0.0223826 0.0295724 -0.0210187 0.0305841 -0.0196186 0.0315777 -0.0181554 0.032517 -0.016656 0.0334022 -0.0150933 0.0342513 -0.0135036 0.0350371 -0.0118597 0.0357868 -0.0101616 0.0364914 -0.0084183 0.0371327 -0.0066389 0.0377469 -0.00479626 0.0382979 -0.00290847 0.0388037 -0.000975511 0 0zm0 0.00885186l0 -0.00885186 0.000225813 9.03251e-006 0.000225813 1.8065e-005 0.00021678 2.70975e-005 0.000225813 3.61301e-005 0.000207748 4.51626e-005 0.000207748 6.32276e-005 0.000207748 7.22601e-005 0.000198715 8.12926e-005 0.000198715 8.12926e-005 0.000189683 9.93576e-005 0.000189683 0.00010839 0.00018065 0.000117423 0.000171618 0.000126455 0.000162585 0.000126455 0.000162585 0.00014452 0.000153553 0.00014452 0.00014452 0.000153553 0.00014452 0.000162585 0.000126455 0.000162585 0.000126455 0.000171618 0.000117423 0.00018065 0.00010839 0.000189683 9.93576e-005 0.000189683 8.12926e-005 0.000198715 8.12926e-005 0.000198715 7.22601e-005 0.000207748 6.32276e-005 0.000207748 4.51626e-005 0.000207748 3.61301e-005 0.000225813 2.70975e-005 0.00021678 1.8065e-005 0.000225813 9.03251e-006 0.000225813 -9.03251e-006 0.000225813 -1.8065e-005 0.000225813 -2.70975e-005 0.00021678 -3.61301e-005 0.000225813 -4.51626e-005 0.000207748 -6.32276e-005 0.000207748 -7.22601e-005 0.000207748 -8.12926e-005 0.000198715 -8.12926e-005 0.000198715 -9.93576e-005 0.000189683 -0.00010839 0.000189683 -0.000117423 0.00018065 -0.000126455 0.000171618 -0.000126455 0.000162585 -0.00014452 0.000162585 -0.00014452 0.000153553 -0.000153553 0.00014452 -0.000162585 0.00014452 -0.000162585 0.000126455 -0.000171618 0.000126455 -0.00018065 0.000117423 -0.000189683 0.00010839 -0.000189683 9.93576e-005 -0.000198715 8.12926e-005 -0.000198715 8.12926e-005 -0.000207748 7.22601e-005 -0.000207748 6.32276e-005 -0.000207748 4.51626e-005 -0.000225813 3.61301e-005 -0.00021678 2.70975e-005 -0.000225813 1.8065e-005 -0.000225813 9.03251e-006zm0.129318 0.00280911l0.00328783 0.00821959 -0.00241168 0.00025291 -0.00396527 -0.000695503 -0.00398334 -0.000659373 -0.00398334 -0.000650341 -0.00398334 -0.000614211 -0.00401044 -0.000605178 -0.0040014 -0.000587113 -0.00401044 -0.000550983 -0.0040285 -0.000541951 -0.00401947 -0.000523886 -0.0040285 -0.000487756 -0.00404657 -0.000469691 -0.00403753 -0.000460658 -0.0040556 -0.000424528 -0.00404657 -0.000406463 -0.00407366 -0.000388398 -0.00407366 -0.000370333 -0.00407366 -0.000334203 -0.0040827 -0.00032517 -0.0040827 -0.000298073 -0.00410076 -0.000280008 -0.00409173 -0.000261943 -0.00410076 -0.000234845 -0.00410979 -0.000198715 -0.00411883 -0.000189683 -0.00411883 -0.000171618 -0.00412786 -0.00014452 -0.00411883 -0.000126455 -0.00414592 -9.93576e-005 -0.00412786 -8.12926e-005 -0.00414592 -5.41951e-005 -0.00415496 -3.61301e-005 -0.00414592 -9.03251e-006 0 -0.00885186 0.00420012 9.03251e-006 0.00419109 3.61301e-005 0.00420012 5.41951e-005 0.00418205 8.12926e-005 0.00418205 9.93576e-005 0.00417302 0.000126455 0.00418205 0.00014452 0.00415496 0.000171618 0.00417302 0.000189683 0.00414592 0.00021678 0.00415496 0.000234845 0.00414592 0.000261943 0.00413689 0.000280008 0.00413689 0.000298073 0.00413689 0.00032517 0.00412786 0.000352268 0.00410979 0.000370333 0.00410979 0.000388398 0.00410076 0.000406463 0.00410979 0.000442593 0.00409173 0.000460658 0.0040827 0.000469691 0.0040827 0.000505821 0.00407366 0.000523886 0.00406463 0.000541951 0.00406463 0.000569048 0.0040556 0.000587113 0.00404657 0.000605178 0.00403753 0.000632276 0.00403753 0.000650341 0.00401947 0.000677438 0.00401947 0.000695503 -0.00241168 0.00025291zm0.000876154 0.0084725l0.00153553 -0.00872541 0.000225813 4.51626e-005 0.00021678 5.41951e-005 0.000207748 6.32276e-005 0.000207748 8.12926e-005 0.000207748 8.12926e-005 0.000189683 9.93576e-005 0.000198715 9.93576e-005 0.00018065 0.000117423 0.00018065 0.000117423 0.000162585 0.000135488 0.000171618 0.000135488 0.000153553 0.00014452 0.00014452 0.000153553 0.00014452 0.000153553 0.000135488 0.000171618 0.000126455 0.000171618 0.000117423 0.000171618 0.00010839 0.00018065 9.93576e-005 0.000189683 9.03251e-005 0.000198715 9.03251e-005 0.000189683 7.22601e-005 0.000207748 6.32276e-005 0.000198715 5.41951e-005 0.00021678 3.61301e-005 0.000207748 3.61301e-005 0.00021678 2.70975e-005 0.00021678 9.03251e-006 0.00021678 0 0.000225813 -9.03251e-006 0.00021678 -1.8065e-005 0.000225813 -3.61301e-005 0.000225813 -4.51626e-005 0.000225813 -5.41951e-005 0.00021678 -6.32276e-005 0.000207748 -8.12926e-005 0.000207748 -8.12926e-005 0.000207748 -9.93576e-005 0.000189683 -9.93576e-005 0.000198715 -0.000117423 0.00018065 -0.000117423 0.00018065 -0.000135488 0.000162585 -0.000135488 0.000171618 -0.00014452 0.000153553 -0.000153553 0.00014452 -0.000153553 0.00014452 -0.000171618 0.000135488 -0.000171618 0.000126455 -0.000171618 0.000117423 -0.00018065 0.00010839 -0.000189683 9.93576e-005 -0.000198715 9.03251e-005 -0.000189683 9.03251e-005 -0.000207748 7.22601e-005 -0.000198715 6.32276e-005 -0.00021678 5.41951e-005 -0.000207748 3.61301e-005 -0.00021678 3.61301e-005 -0.00021678 2.70975e-005 -0.00021678 9.03251e-006 -0.000225813 0 -0.00021678 -9.03251e-006 -0.000225813 -1.8065e-005 -0.000225813 -3.61301e-005zm0.028335 -0.0105861l-0.0259233 0.0103332 -0.00328783 -0.00821959 0.0259233 -0.0103332 0.00253814 -0.000225813 0.000749699 0.0084454zm0 0l-0.00328783 -0.00821959 0.00021678 -8.12926e-005 0.000207748 -6.32276e-005 0.00021678 -5.41951e-005 0.00021678 -4.51626e-005 0.00021678 -3.61301e-005 0.00021678 -1.8065e-005 0.00021678 -1.8065e-005 0.00021678 0 0.00021678 9.03251e-006 0.00021678 1.8065e-005 0.000207748 3.61301e-005 0.000207748 3.61301e-005 0.000207748 5.41951e-005 0.000207748 5.41951e-005 0.000198715 7.22601e-005 0.000198715 8.12926e-005 0.000198715 9.03251e-005 0.00018065 9.03251e-005 0.000189683 0.00010839 0.00018065 0.000117423 0.000171618 0.000126455 0.000171618 0.000126455 0.000153553 0.00014452 0.000162585 0.00014452 0.00014452 0.000162585 0.00014452 0.000162585 0.000126455 0.000171618 0.000126455 0.00018065 0.000117423 0.000189683 0.00010839 0.000189683 9.93576e-005 0.000207748 9.03251e-005 0.000207748 8.12926e-005 0.00021678 6.32276e-005 0.000207748 5.41951e-005 0.00021678 4.51626e-005 0.00021678 3.61301e-005 0.00021678 1.8065e-005 0.00021678 1.8065e-005 0.00021678 0 0.00021678 -9.03251e-006 0.00021678 -1.8065e-005 0.00021678 -3.61301e-005 0.000207748 -3.61301e-005 0.000207748 -5.41951e-005 0.000207748 -5.41951e-005 0.000207748 -7.22601e-005 0.000198715 -8.12926e-005 0.000198715 -9.03251e-005 0.000198715 -9.03251e-005 0.00018065 -0.00010839 0.000189683 -0.000117423 0.00018065 -0.000126455 0.000171618 -0.000126455 0.000171618 -0.00014452 0.000153553 -0.00014452 0.000162585 -0.000162585 0.00014452 -0.000162585 0.00014452 -0.000171618 0.000126455 -0.00018065 0.000126455 -0.000189683 0.000117423 -0.000189683 0.00010839 -0.000207748 9.93576e-005 -0.000207748 9.03251e-005zm-0.15853 -0.0156533l0 -0.00885186 0 0 0.00506724 1.8065e-005 0.00506724 4.51626e-005 0.00505821 8.12926e-005 0.00504917 0.000117423 0.00503111 0.00014452 0.00503111 0.000171618 0.00502208 0.000207748 0.00501304 0.000243878 0.00500401 0.000280008 0.00500401 0.000307105 0.00496788 0.000334203 0.00497691 0.000361301 0.00497691 0.000406463 0.00495885 0.000433561 0.00494078 0.000451626 0.00494078 0.000496788 0.00493175 0.000523886 0.00491369 0.000550983 0.00491369 0.000578081 0.00490465 0.000623243 0.00488659 0.000641308 0.00488659 0.000677438 0.00486852 0.000704536 0.00485046 0.000722601 0.00485949 0.000767764 0.00484143 0.000803894 0.00482336 0.000812926 0.00482336 0.000858089 0.0048053 0.000876154 0.00479626 0.000912284 0.00478723 0.000930349 0.0047782 0.000975511 -0.00178844 0.00867121 -0.004724 -0.000957446 -0.00473304 -0.000930349 -0.00474207 -0.000894219 -0.0047511 -0.000876154 -0.00476917 -0.000840024 -0.00476917 -0.000812926 -0.00478723 -0.000785829 -0.00478723 -0.000749699 -0.00481433 -0.000722601 -0.00481433 -0.000704536 -0.00481433 -0.000659373 -0.00485046 -0.000641308 -0.00483239 -0.000605178 -0.00485949 -0.000578081 -0.00485949 -0.000550983 -0.00487756 -0.000505821 -0.00488659 -0.000496788 -0.00488659 -0.000451626 -0.00490465 -0.000433561 -0.00490465 -0.000388398 -0.00492272 -0.000361301 -0.00493175 -0.000334203 -0.00493175 -0.000307105 -0.00494982 -0.000261943 -0.00495885 -0.000243878 -0.00496788 -0.000207748 -0.00495885 -0.000171618 -0.00499498 -0.00014452 -0.00499498 -0.000117423 -0.00498595 -8.12926e-005 -0.00501304 -4.51626e-005 -0.00501304 -1.8065e-005 0 0zm0 -0.00885186l0 0.00885186 -0.000225813 -9.03251e-006 -0.000225813 -1.8065e-005 -0.00021678 -2.70975e-005 -0.000225813 -3.61301e-005 -0.000207748 -4.51626e-005 -0.000207748 -6.32276e-005 -0.000207748 -7.22601e-005 -0.000198715 -8.12926e-005 -0.000198715 -8.12926e-005 -0.000189683 -9.93576e-005 -0.000189683 -0.00010839 -0.00018065 -0.000117423 -0.000171618 -0.000126455 -0.000162585 -0.000126455 -0.000162585 -0.00014452 -0.000153553 -0.00014452 -0.00014452 -0.000153553 -0.00014452 -0.000162585 -0.000126455 -0.000162585 -0.000126455 -0.000171618 -0.000117423 -0.00018065 -0.00010839 -0.000189683 -9.93576e-005 -0.000189683 -8.12926e-005 -0.000198715 -8.12926e-005 -0.000198715 -7.22601e-005 -0.000207748 -6.32276e-005 -0.000207748 -4.51626e-005 -0.000207748 -3.61301e-005 -0.000225813 -2.70975e-005 -0.00021678 -1.8065e-005 -0.000225813 -9.03251e-006 -0.000225813 9.03251e-006 -0.000225813 1.8065e-005 -0.000225813 2.70975e-005 -0.00021678 3.61301e-005 -0.000225813 4.51626e-005 -0.000207748 6.32276e-005 -0.000207748 7.22601e-005 -0.000207748 8.12926e-005 -0.000198715 8.12926e-005 -0.000198715 9.93576e-005 -0.000189683 0.00010839 -0.000189683 0.000117423 -0.00018065 0.000126455 -0.000171618 0.000126455 -0.000162585 0.00014452 -0.000162585 0.00014452 -0.000153553 0.000153553 -0.00014452 0.000162585 -0.00014452 0.000162585 -0.000126455 0.000171618 -0.000126455 0.00018065 -0.000117423 0.000189683 -0.00010839 0.000189683 -9.93576e-005 0.000198715 -8.12926e-005 0.000198715 -8.12926e-005 0.000207748 -7.22601e-005 0.000207748 -6.32276e-005 0.000207748 -4.51626e-005 0.000225813 -3.61301e-005 0.00021678 -2.70975e-005 0.000225813 -1.8065e-005 0.000225813 -9.03251e-006zm-0.760321 0.768974l-0.00885186 0 0 0 0.000993576 -0.0395714 0.0029717 -0.0390476 0.00489562 -0.0384875 0.00677438 -0.0378733 0.00858089 -0.0372049 0.0103693 -0.0365004 0.0121036 -0.0357326 0.0137746 -0.0349197 0.0154004 -0.0340706 0.0169902 -0.0331493 0.0185257 -0.0322099 0.020007 -0.0311893 0.0214432 -0.0301596 0.0228432 -0.0290395 0.024171 -0.0279014 0.0254717 -0.0267091 0.0267091 -0.0254627 0.0279195 -0.024162 0.0290576 -0.0228342 0.0301596 -0.0214251 0.0312073 -0.020007 0.0322009 -0.0185167 0.0331674 -0.0169811 0.0340706 -0.0154004 0.0349378 -0.0137565 0.0357417 -0.0120945 0.0364914 -0.0103603 0.037214 -0.00858992 0.0378643 -0.00676535 0.0384966 -0.00488659 0.0390476 -0.0029717 0.0395714 -0.000993576 0 0.00885186 -0.0391198 0.000993576 -0.038614 0.00293557 -0.0380449 0.00483239 -0.0374307 0.00667503 -0.0367804 0.00849959 -0.0360759 0.0102338 -0.0353262 0.01195 -0.0345223 0.013612 -0.0336732 0.0152198 -0.032788 0.0167824 -0.0318396 0.0182999 -0.030846 0.0197722 -0.0298163 0.0211903 -0.0287144 0.0225632 -0.0275943 0.023891 -0.026402 0.0251736 -0.0251826 0.026402 -0.0239 0.0275763 -0.0225722 0.0287144 -0.0212083 0.0297983 -0.0197722 0.030846 -0.0183089 0.0318306 -0.0167914 0.03277 -0.0152378 0.0336732 -0.013612 0.0345223 -0.011959 0.0353171 -0.0102429 0.0360668 -0.00849056 0.0367714 -0.00668406 0.0374398 -0.00484143 0.0380359 -0.00293557 0.038614 -0.000993576 0.0391198 0 0zm-0.00885186 0l0.00885186 0 -9.03251e-006 0.000225813 -1.8065e-005 0.000225813 -2.70975e-005 0.00021678 -3.61301e-005 0.000225813 -4.51626e-005 0.000207748 -6.32276e-005 0.000207748 -7.22601e-005 0.000207748 -8.12926e-005 0.000198715 -8.12926e-005 0.000198715 -9.93576e-005 0.000189683 -0.00010839 0.000189683 -0.000117423 0.00018065 -0.000126455 0.000171618 -0.000126455 0.000162585 -0.00014452 0.000162585 -0.00014452 0.000153553 -0.000153553 0.00014452 -0.000162585 0.00014452 -0.000162585 0.000126455 -0.000171618 0.000126455 -0.00018065 0.000117423 -0.000189683 0.00010839 -0.000189683 9.93576e-005 -0.000198715 8.12926e-005 -0.000198715 8.12926e-005 -0.000207748 7.22601e-005 -0.000207748 6.32276e-005 -0.000207748 4.51626e-005 -0.000225813 3.61301e-005 -0.00021678 2.70975e-005 -0.000225813 1.8065e-005 -0.000225813 9.03251e-006 -0.000225813 -9.03251e-006 -0.000225813 -1.8065e-005 -0.00021678 -2.70975e-005 -0.000225813 -3.61301e-005 -0.000207748 -4.51626e-005 -0.000207748 -6.32276e-005 -0.000207748 -7.22601e-005 -0.000198715 -8.12926e-005 -0.000198715 -8.12926e-005 -0.000189683 -9.93576e-005 -0.000189683 -0.00010839 -0.00018065 -0.000117423 -0.000171618 -0.000126455 -0.000162585 -0.000126455 -0.000162585 -0.00014452 -0.000153553 -0.00014452 -0.00014452 -0.000153553 -0.00014452 -0.000162585 -0.000126455 -0.000162585 -0.000126455 -0.000171618 -0.000117423 -0.00018065 -0.00010839 -0.000189683 -9.93576e-005 -0.000189683 -8.12926e-005 -0.000198715 -8.12926e-005 -0.000198715 -7.22601e-005 -0.000207748 -6.32276e-005 -0.000207748 -4.51626e-005 -0.000207748 -3.61301e-005 -0.000225813 -2.70975e-005 -0.00021678 -1.8065e-005 -0.000225813 -9.03251e-006 -0.000225813zm0.769173 0.760474l0 0.00885186 0 0 -0.0395714 -0.000993576 -0.0390476 -0.0029717 -0.0384966 -0.00489562 -0.0378643 -0.00677438 -0.037214 -0.00858089 -0.0365004 -0.0103693 -0.0357417 -0.0121036 -0.0349287 -0.0137746 -0.0340706 -0.0154004 -0.0331674 -0.0169902 -0.0322099 -0.0185347 -0.0311983 -0.020007 -0.0301686 -0.0214432 -0.0290486 -0.0228432 -0.0279195 -0.02418 -0.0267091 -0.0254717 -0.0254717 -0.0267182 -0.024171 -0.0279195 -0.0228432 -0.0290576 -0.0214432 -0.0301686 -0.020007 -0.0312164 -0.0185257 -0.0322099 -0.0169902 -0.0331764 -0.0154004 -0.0340797 -0.0137746 -0.0349287 -0.0121036 -0.0357507 -0.0103693 -0.0365094 -0.00858089 -0.037223 -0.00677438 -0.0378824 -0.00489562 -0.0385056 -0.0029717 -0.0390566 -0.000993576 -0.0395895 0.00885186 0 0.000993576 0.0391379 0.00293557 0.038623 0.00484143 0.038054 0.00668406 0.0374488 0.00849056 0.0367894 0.0102429 0.0360759 0.011959 0.0353352 0.013612 0.0345313 0.0152378 0.0336822 0.0167914 0.0327971 0.0183089 0.0318486 0.0197722 0.0308551 0.0212083 0.0298073 0.0225722 0.0287324 0.0239 0.0275943 0.0251826 0.0264111 0.026402 0.0251826 0.0275943 0.0239091 0.0287234 0.0225722 0.0298073 0.0212083 0.0308551 0.0197722 0.0318306 0.0183179 0.032788 0.0167914 0.0336732 0.0152378 0.0345313 0.013612 0.0353262 0.011959 0.0360668 0.0102429 0.0367804 0.00849056 0.0374307 0.00668406 0.0380449 0.00484143 0.038614 0.00293557 0.0391198 0.000993576 0 0zm0 0.00885186l0 -0.00885186 0.000225813 9.03251e-006 0.000225813 1.8065e-005 0.00021678 2.70975e-005 0.000225813 3.61301e-005 0.000207748 4.51626e-005 0.000207748 6.32276e-005 0.000207748 7.22601e-005 0.000198715 8.12926e-005 0.000198715 8.12926e-005 0.000189683 9.93576e-005 0.000189683 0.00010839 0.00018065 0.000117423 0.000171618 0.000126455 0.000162585 0.000126455 0.000162585 0.00014452 0.000153553 0.00014452 0.00014452 0.000153553 0.00014452 0.000162585 0.000126455 0.000162585 0.000126455 0.000171618 0.000117423 0.00018065 0.00010839 0.000189683 9.93576e-005 0.000189683 8.12926e-005 0.000198715 8.12926e-005 0.000198715 7.22601e-005 0.000207748 6.32276e-005 0.000207748 4.51626e-005 0.000207748 3.61301e-005 0.000225813 2.70975e-005 0.00021678 1.8065e-005 0.000225813 9.03251e-006 0.000225813 -9.03251e-006 0.000225813 -1.8065e-005 0.000225813 -2.70975e-005 0.00021678 -3.61301e-005 0.000225813 -4.51626e-005 0.000207748 -6.32276e-005 0.000207748 -7.22601e-005 0.000207748 -8.12926e-005 0.000198715 -8.12926e-005 0.000198715 -9.93576e-005 0.000189683 -0.00010839 0.000189683 -0.000117423 0.00018065 -0.000126455 0.000171618 -0.000126455 0.000162585 -0.00014452 0.000162585 -0.00014452 0.000153553 -0.000153553 0.00014452 -0.000162585 0.00014452 -0.000162585 0.000126455 -0.000171618 0.000126455 -0.00018065 0.000117423 -0.000189683 0.00010839 -0.000189683 9.93576e-005 -0.000198715 8.12926e-005 -0.000198715 8.12926e-005 -0.000207748 7.22601e-005 -0.000207748 6.32276e-005 -0.000207748 4.51626e-005 -0.000225813 3.61301e-005 -0.00021678 2.70975e-005 -0.000225813 1.8065e-005 -0.000225813 9.03251e-006z"/>
   </g>
   <path class="fil2" d="M0.0487123 0.768974c0,-0.397765 0.322578,-0.720352 0.72046,-0.720352 0.398009,0 0.720632,0.322587 0.720632,0.720352 0,0.398036 -0.322623,0.720795 -0.720632,0.720795 -0.397882,0 -0.72046,-0.322759 -0.72046,-0.720795l0 0z"/>
   <g>
    <path class="fil3 str0" d="M0.0487123 0.768974c0,-0.397765 0.322578,-0.720352 0.72046,-0.720352 0.398009,0 0.720632,0.322587 0.720632,0.720352 0,0.398036 -0.322623,0.720795 -0.720632,0.720795 -0.397882,0 -0.72046,-0.322759 -0.72046,-0.720795l0 0z"/>
   </g>
   <path class="fil0" d="M1.0339 0.0674458c0.283413,0.106837 0.485046,0.380675 0.485046,0.701528 0,0.414087 -0.335702,0.749789 -0.749771,0.749789 -0.414077,0 -0.749635,-0.335702 -0.749635,-0.749789 0,-0.41396 0.335558,-0.74959 0.749635,-0.74959 0.0445664,0 0.0884012,0.00385688 0.130962,0.0113448l0.0259233 -0.0103332c-0.0506001,-0.0104145 -0.103043,-0.0159695 -0.156886,-0.0159695 -0.42227,0 -0.764747,0.34226 -0.764747,0.764548 0,0.422414 0.342477,0.7649 0.764747,0.7649 0.422405,0 0.764747,-0.342486 0.764747,-0.7649 0,-0.330337 -0.209509,-0.61189 -0.503102,-0.718816l0.00308009 0.0172882 0 0z"/>
   <path class="fil0" d="M1.16148 0.278879c-0.00616017,0.0475923 -0.023602,0.0433561 -0.0314602,0.0410347 -0.00848153,-0.00246588 -0.0107939,-0.00601565 -0.0362565,-0.00840024 -0.0080299,-0.000767764 -0.0451897,-0.00494078 -0.0253091,0.0107216 0.031939,0.0255349 0.0590817,0.0773635 0.0590817,0.0773635 0.00370333,-0.0168908 -0.00492272,-0.0410257 -0.00956543,-0.049444 -0.00476917,-0.00856282 0.00125552,-0.0108751 0.00709955,-0.00971898 0.00616921,0.00115616 0.0095835,0.00347752 0.0206845,0.00971898 0.0108029,0.00593436 0.018047,0.00485949 0.0205219,-0.00971898 0.00200522,-0.0125823 0.00138197,-0.0382527 -0.0010839,-0.0614753 -0.00032517,-0.00169811 -0.00308912,-0.00253814 -0.00371236,-8.12926e-005l0 0zm-0.281552 -0.0581603c-0.062794,0.050844 -0.166153,0.172413 -0.214902,0.286331 -0.00370333,0.00850863 0,0.00980028 0.0120313,0.00248394 0.0121849,-0.0073344 0.0472039,-0.0241529 0.0640315,-0.0290124 0,0 -0.0182095,0.0630921 -0.0242342,0.0978763 -0.0047782,0.0286331 0.0189863,0.026393 0.0338087,0.0229877 0.0147953,-0.00331493 0.0761983,-0.00600662 0.0869831,-0.00731634 0,0 -0.0567513,-0.013341 -0.062776,-0.0363288 -0.00601565,-0.0228342 0.0101796,-0.073895 0.0217413,-0.108544 0.00249297,-0.00739763 -0.00121939,-0.0181192 -0.0132597,-0.0134223 -0.0121849,0.00479626 -0.0289944,0.00840927 -0.0374759,0.0134223 0,0 0.0532286,-0.130511 0.135298,-0.224783l-0.00124649 -0.0036943 0 0zm0.0797571 -0.130285c0.00356784,-0.0040014 0,-0.00725311 -0.0095564,-0.00115616 -0.00972802,0.00593436 -0.0523073,0.0315415 -0.0810036,0.0796126 -0.00353171,0.00607888 -0.00138197,0.0151114 0.013883,0.0098635 0.0186792,-0.0065576 0.0379637,-0.0098635 0.0464361,-0.011101 0.00850863,-0.00124649 0.00850863,-0.00718085 0.00249297,-0.0095022 -0.00602469,-0.0025291 -0.00741569,-0.00485949 -0.00479626,-0.0145604 0.00230329,-0.00964672 0.0192844,-0.037494 0.0325441,-0.0531563l0 0zm-0.555247 0.821254c0.00740666,-0.00910477 0.0228523,-0.0218948 0.0432206,-0.031939 0.0289944,-0.0146598 0.111687,-0.0242252 0.157509,-0.023602 0.0271517,0.000298073 0.0453613,0.0126636 0.0580158,0.0253091 0.0126365,0.0126365 -0.00910477,0.0144972 -0.0199348,0.00539241 -0.0109293,-0.00895122 -0.0229697,-0.0120313 -0.0356242,-0.0120313 -0.0126365,0 -0.0260588,0.00493175 -0.0331584,0.0101796 -0.00726214,0.00554596 -0.00909574,0.0129617 -0.0271517,0.0181915 -0.0219038,0.00617824 -0.0472039,-0.0135668 -0.0472039,-0.0135668 0.0177489,0.0334835 0.0482788,0.0323996 0.0652599,0.0282447 0.0123474,-0.0032517 0.0161953,-0.00896025 0.0343868,-0.00925833 0.0289944,-0.000460658 0.041667,0.0163488 0.041667,0.0163488 -0.0362565,-0.00185167 -0.0976505,0.020829 -0.126816,0.0271427 -0.0362565,0.0080299 -0.0706523,0.00910477 -0.0706523,0.00910477 0.0234303,0.0290124 0.0579978,0.0290124 0.0834514,0.0290124 0.0253001,0 0.106755,-0.00602469 0.155675,-0.00185167 0.061394,0.0050853 0.11045,0.0453613 0.11045,0.105066 0,0.0597049 -0.0414954,0.09224 -0.0414954,0.09224 0.0524608,-0.0161863 0.0742202,-0.0578532 0.0742202,-0.0578532 0.0279195,0.107695 -0.0300963,0.193784 -0.0831623,0.228956 -0.0441238,0.0293015 -0.176513,0.0595514 -0.278165,0.0109564 -0.112455,-0.0538338 -0.155043,-0.106295 -0.155043,-0.106295 0.244528,0.0198896 0.364092,-0.0478272 0.364092,-0.0478272 -0.220926,0.0127991 -0.375039,-0.043058 -0.474713,-0.0867121 -0.0397973,-0.0632457 -0.0687916,-0.132362 -0.0857818,-0.207495l0 0.000153553c0.182818,0.137601 0.344979,0.161212 0.344979,0.161212 -0.197478,-0.106909 -0.295752,-0.226626 -0.36103,-0.345999 0.00341429,-0.069731 0.0172882,-0.134919 0.0401224,-0.197478l0.000460658 -0.00107487c0.0732808,0.194931 0.153806,0.252965 0.153806,0.252965 -0.0797571,-0.181301 -0.0791429,-0.311125 -0.0718807,-0.408938 0.030557,-0.0433561 0.0652509,-0.0817623 0.104913,-0.116799l0.000605178 -0.000695503c-0.030837,0.174029 0.00616921,0.287126 0.00616921,0.287126 0,-0.137628 0.0773002,-0.301388 0.138857,-0.384848 0.0390385,-0.0195102 0.076677,-0.0339442 0.119419,-0.0459032l0.00014452 0c-0.0561551,0.0705981 -0.080841,0.139083 -0.080841,0.139083 0.115255,-0.109682 0.306085,-0.175565 0.335079,-0.182981 0.0289944,-0.00708149 0.112482,-0.0379456 0.136084,-0.0432567 0.0215967,-0.00517563 0.0320745,0.00856282 0.0306925,0.021678 -0.00182457,0.0170353 -0.00909574,0.0453522 -0.00909574,0.0453522 0.0640134,0.0155811 0.0917974,0.0470594 0.0917974,0.0470594 -0.00245684,-0.00849056 -0.00124649,-0.0229877 -0.00124649,-0.0229877 0.0882567,0.0785106 0.112319,0.115941 0.114794,0.187118 0.00247491,0.0712846 0.0337816,0.0821688 0.0518466,0.0917974 0.0181915,0.00966479 0.0629385,0.0351907 0.0772822,0.0472129 0.0107939,0.00910477 0.00616921,0.0192934 0,0.0265466 -0.00600662,0.00716278 -0.00600662,0.00963769 -0.00709955,0.0180379 -0.00541048,0.0370423 -0.0219129,0.0520002 -0.0447561,0.0603282 -0.0229697,0.00840927 -0.0484414,-0.00478723 -0.0484414,-0.00478723 -0.025291,0.027784 -0.0300783,0.00964672 -0.0313067,-0.00114713 -0.00107487,-0.0108842 -0.0145152,-0.00239362 -0.0240626,0.00114713 -0.00971898,0.0036401 -0.0132688,-0.00963769 -0.0132688,-0.00963769 -0.0459665,-0.00601565 -0.0660277,0.0211361 -0.0660277,0.0211361 0.0399598,0.00539241 0.060003,0.0325532 0.0617011,0.0434193 0.0018607,0.011119 0.0199077,0.0036401 0.0199077,0.0036401 0,0 0.00171618,-0.0036401 0.00911381,-0.00718085 0.00724408,-0.00363107 0.00909574,-0.00185167 0.00724408,0.00718085 -0.00184263,0.00902348 -0.00371236,0.0163579 -0.00371236,0.0163579l0.0200702 0.0127268c-0.00741569,0.0489833 -0.0289944,0.0468787 -0.0399598,0.0415676 -0.0695955,-0.0347842 -0.193774,-0.0415676 -0.193774,-0.0415676 0.00724408,-0.0108932 0.0246768,-0.0248484 0.0246768,-0.0248484 -0.318739,0 -0.372582,0.0387314 -0.388922,0.059163 -0.0112726,0.0141901 -0.00155359,0.0361752 -0.00155359,0.0361752 -0.0379456,0.00726214 -0.134223,0.0315596 -0.171094,0.0653773 -0.0354797,0.0324087 -0.0473484,0.108453 -0.0485949,0.136535 -0.000298073,0.0058621 0.00540144,0.00570855 0.00785829,0.00232136l0 0z"/>
   <path class="fil0" d="M1.24202 1.25233c-0.0283892,-0.0950401 -0.106764,-0.155666 -0.150265,-0.208281 -0.0177399,-0.0214432 -0.0439793,-0.0515215 -0.0439793,-0.0515215 0.0254717,0.0144972 0.0737685,0.0217413 0.0737685,0.0217413 -0.0132778,-0.0109384 -0.0435186,-0.0470504 -0.055559,-0.0617101 -0.033628,-0.0402579 -0.0919419,-0.085294 -0.135298,-0.104904 -0.0851585,-0.0385688 -0.173858,-0.0435006 -0.185898,-0.0458129 -0.0121849,-0.00247491 -0.0374759,0.00231232 -0.0219038,-0.0219129 0.0157346,-0.02418 0.107532,-0.0953743 0.107532,-0.0953743 -0.0192754,0 -0.103838,0.00739763 -0.129291,0.0108661 -0.0253001,0.0036943 -0.0311622,-0.0047782 -0.0325441,-0.0215877 0,0 -0.0509163,0.0478994 -0.0265375,0.0723504 0.00371236,0.00362204 0.0144972,0.00485949 0.0279195,-0.00115616 0.0131242,-0.00609695 0.0396618,-0.0145694 0.0493807,-0.0156533 0,0 -0.0217593,0.0337364 -0.0265375,0.0482517 -0.00479626,0.0144972 -0.00601565,0.0217413 0.0168185,0.0289944 0.0229787,0.00709955 0.139001,0.0435096 0.210123,0.0917974 0.0712665,0.0482878 0.145017,0.109998 0.199483,0.223392 0.0542944,0.113701 0.0243607,0.19979 0.0158792,0.215516 0.0390295,-0.0248304 0.0745002,-0.0532105 0.107532,-0.0854656l-0.000623243 0.000469691 0 0z"/>
   <path class="fil0" d="M1.40091 1.01164c-0.0698575,-0.0567513 -0.192519,-0.158123 -0.34217,-0.192989 0,0 0.213529,0.0853121 0.289727,0.300078 0.0206845,-0.0341068 0.0379546,-0.0694329 0.0524428,-0.107089l0 0z"/>
   <path class="fil0" d="M0.981753 1.41031c0.0228432,-0.0532286 0.0479897,-0.179738 0.0214613,-0.277696 0,0 0.00491369,0.230474 -0.153209,0.306545 0.0444219,-0.00523886 0.0900903,-0.0151204 0.131441,-0.0286963l0.000307105 -0.000153553 0 0z"/>
   <path class="fil0" d="M1.44583 0.760032c-0.0205128,-0.00830088 -0.146878,-0.0440877 -0.146878,-0.0440877 0.0422812,-0.00231232 0.0592352,-0.0336371 0.0592352,-0.0336371 -0.0397882,0.0107216 -0.100279,0.0155901 -0.15087,0.00833701 0,0 0.117097,0.0506724 0.233734,0.161339l0 -0.0010839c0.00308912,-0.0266911 0.00492272,-0.0539964 0.00492272,-0.0819249 0,-0.00339622 0,-0.00524789 -0.00014452,-0.00894219l0 0z"/>
  </g>
 </g>
</svg>
