<?xml version="1.0" encoding="UTF-8"?>
<!DOCTYPE svg PUBLIC "-//W3C//DTD SVG 1.1//EN" "http://www.w3.org/Graphics/SVG/1.1/DTD/svg11.dtd">
<!-- Creator: CorelDRAW -->
<svg xmlns="http://www.w3.org/2000/svg" xml:space="preserve" width="16.9332mm" height="16.9332mm" style="shape-rendering:geometricPrecision; text-rendering:geometricPrecision; image-rendering:optimizeQuality; fill-rule:evenodd; clip-rule:evenodd"
viewBox="0 0 2.97874 2.97874"
 xmlns:xlink="http://www.w3.org/1999/xlink">
 <defs>
  <style type="text/css">
   <![CDATA[
    .fil3 {fill:#FEFEFE}
    .fil1 {fill:#87A732}
    .fil2 {fill:#FEFEFE;fill-rule:nonzero}
    .fil0 {fill:#010101;fill-rule:nonzero}
   ]]>
  </style>
 </defs>
<symbol id="Fm4-477-0" viewBox="17.6562 -2.20136 2.29607 3.23364">
 <polygon class="fil0" points="17.6562,-0.845641 17.6562,1.03228 19.9523,-2.20136 "/>
</symbol>
<symbol id="Fm0-469-0" viewBox="15.3615 -3.6795 4.58942 2.3994">
 <polygon class="fil0" points="17.6562,-3.6795 15.3615,-2.63649 17.6562,-1.28011 19.951,-2.63649 "/>
</symbol>
<symbol id="Fm1-471-0" viewBox="15.3616 -6.44401 2.29471 5.16388">
 <polygon class="fil0" points="15.3616,-2.63651 17.6563,-1.28013 17.6563,-3.67952 17.6563,-6.44401 "/>
</symbol>
<symbol id="Fm2-473-0" viewBox="17.6562 -6.44401 2.29471 5.16388">
 <polygon class="fil0" points="17.6562,-6.44401 17.6562,-3.67952 17.6562,-1.28013 19.951,-2.63651 "/>
</symbol>
<symbol id="Fm3-475-0" viewBox="15.3616 -2.20137 2.29471 3.23364">
 <polygon class="fil0" points="15.3616,-2.20137 17.6563,1.03227 17.6563,-0.845677 "/>
</symbol>
 <g id="__x0023_Layer_x0020_1">
  <metadata id="CorelCorpID_0Corel-Layer"/>
  <g id="_393189712">
   <circle id="_392159672" class="fil1" cx="1.48937" cy="1.48937" r="1.48938"/>
   <g>
    <g>
     <path id="_394040176" class="fil2" d="M1.75734 1.33733l-0.00172393 0 0 0.261879 -0.132162 -0.0839977 0 -0.694041 0.132162 0 0 0.0877798 0.00172393 0c0.0327195,-0.0679546 0.0785796,-0.102029 0.137739,-0.102029 0.055588,0 0.0984225,0.0259645 0.12875,0.0778936 0.0302568,0.0518235 0.0454555,0.12247 0.0454555,0.21185 0,0.097367 -0.0177319,0.175454 -0.0530197,0.234437 -0.0352878,0.0589831 -0.082309,0.0883955 -0.140887,0.0883955 -0.0515948,0 -0.0908934,-0.0272663 -0.118037,-0.0821682zm-0.00372932 -0.239503l0 0.0467221c0,0.0403013 0.00779288,0.0731968 0.0234314,0.0987215 0.0156209,0.025472 0.0361674,0.0381904 0.0615866,0.0381904 0.0300105,0 0.0534419,-0.0157968 0.0700303,-0.0475313 0.0165884,-0.0317168 0.0250146,-0.0766974 0.0250146,-0.134924 0,-0.10282 -0.02943,-0.15401 -0.0880261,-0.15401 -0.02702,0 -0.04922,0.0140026 -0.066301,0.0418493 -0.0171865,0.0280227 -0.0257358,0.0650521 -0.0257358,0.110983z"/>
     <path id="_394775960" class="fil2" d="M1.5787 1.31126l0.0013897 0.109276c-0.106338,0.0119972 -0.152621,-0.00617449 -0.191427,-0.077014l-0.00168875 0c-0.0287263,0.0654039 -0.100076,0.0808665 -0.156385,0.0808665 -0.0417086,0 -0.0744281,-0.0159728 -0.0982817,-0.0480942 -0.0238712,-0.0321214 -0.0357276,-0.0751318 -0.0357276,-0.128697 0,-0.113322 0.0493432,-0.178497 0.147748,-0.196247l0.116436 -0.0210214c0,-0.063891 -0.0254192,-0.095819 -0.0763104,-0.095819 -0.0509967,0 -0.0914388,0.00657909 -0.145584,0.0368007l0 -0.110384c0.0184179,-0.0130526 0.0435909,-0.0243461 0.0755891,-0.0342675 0.03184,-0.00990381 0.0610061,-0.0148117 0.0872873,-0.0148117 0.122188,0 0.183352,0.0831357 0.183352,0.249214 0,0.0686934 0,0.137352 0,0.20601 0.0182244,0.0319279 0.0508032,0.0398791 0.0936025,0.044189zm-0.217937 -0.138425l0 -0.0393162 -0.0778584 0.0136155c-0.0430279,0.00752901 -0.064454,0.034074 -0.064454,0.0794416 0,0.0204409 0.00510143,0.0374164 0.0155682,0.0504338 0.0105371,0.0130702 0.0247331,0.0196669 0.0426058,0.0196669 0.0248387,0 0.0450509,-0.0116629 0.060707,-0.0350591 0.0156209,-0.0233259 0.0234314,-0.0529493 0.0234314,-0.0887825z"/>
     <path id="_394776272" class="fil2" d="M1.02175 1.38117c-0.0437316,0.0288495 -0.101044,0.0432214 -0.171637,0.0432214 -0.0921424,0 -0.164407,-0.0368183 -0.217198,-0.110578 -0.0528086,-0.0738124 -0.094095,-0.172112 -0.094095,-0.294986 0,-0.130843 0.0295707,-0.23697 0.0888705,-0.318347 0.0592997,-0.0813942 0.151284,-0.121871 0.245871,-0.121871 0.0585785,0 0.108027,0.00205816 0.148188,0.0223056l0 0.13021c-0.0863725,-0.0379441 -0.231939,-0.0117685 -0.288741,0.0783861 -0.0316465,0.0502403 -0.0518587,0.113709 -0.0518587,0.196282 0,0.079037 0.0163246,0.142101 0.0489913,0.189052 0.0326316,0.0468804 0.0915619,0.0704877 0.146833,0.0704877 0.0527558,0 0.0872345,-0.00629763 0.144775,-0.034162l0 0.15z"/>
     <rect id="_402760528" class="fil3" x="2.15173" y="0.825295" width="0.134603" height="0.584443"/>
    </g>
    <rect id="_402755776" class="fil3" x="2.15173" y="0.646971" width="0.134603" height="0.117923"/>
    <g>
     <g>
      <path id="_398023840" class="fil2" d="M1.81206 2.3675l0 -0.121221c0.0295707,0.0223056 0.104685,0.0281634 0.126445,0.0281634 0.0234314,0 0.0420077,-0.00432742 0.0554473,-0.0130526 0.0135628,-0.00879557 0.0203002,-0.0220241 0.0203002,-0.0399319 0,-0.011487 -0.00300809,-0.021039 -0.00914739,-0.0286208 -0.00613931,-0.00758178 -0.0140377,-0.0141785 -0.0237129,-0.0198604 -0.00960476,-0.00561157 -0.020177,-0.0108186 -0.0315937,-0.0153747 -0.0114518,-0.00459129 -0.0223759,-0.00981586 -0.033001,-0.0153923 -0.0169579,-0.00883075 -0.0320687,-0.0182244 -0.0449981,-0.0282162 -0.0130526,-0.0100797 -0.0238888,-0.0218306 -0.0327547,-0.0352351 -0.00867243,-0.0132461 -0.0153571,-0.028656 -0.0199659,-0.0461768 -0.00467924,-0.0175208 -0.00701887,-0.0381376 -0.00701887,-0.0620967 0,-0.0327195 0.00527734,-0.0609357 0.0157265,-0.0845079 0.010414,-0.0235545 0.0244341,-0.0428168 0.0418669,-0.0578221 0.0174328,-0.0150052 0.037434,-0.0260877 0.0598627,-0.0331065 0.0224463,-0.00700128 0.0458777,-0.0105019 0.0701535,-0.0105019 0.019016,0 0.0381552,0.00202298 0.0577341,0.00601617 0.0195614,0.00399319 0.0388764,0.00974549 0.0577165,0.0173273l0 0.113498c-0.0250498,-0.0149173 -0.101888,-0.0141785 -0.110015,-0.0141785 -0.00870762,0 -0.0168347,0.00107306 -0.0244165,0.00311363 -0.00770492,0.00205816 -0.0145479,0.00511902 -0.0204409,0.0091298 -0.00582267,0.0039756 -0.0103964,0.00920017 -0.0137211,0.0154098 -0.0033775,0.00624486 -0.00501348,0.0134045 -0.00501348,0.021426 0,0.0105019 0.00240999,0.0197021 0.00744105,0.0272487 0.00510143,0.00761697 0.0116102,0.0141609 0.0197197,0.0196669 0.00817988,0.00557639 0.0171865,0.010414 0.0270024,0.0147766 0.00988622,0.00439779 0.0197549,0.00886594 0.0295883,0.0134396 0.0175911,0.00826784 0.0334408,0.0175032 0.0477072,0.0274598 0.0141609,0.00990381 0.0263867,0.0214612 0.036572,0.0348656 0.0100973,0.0132461 0.0180309,0.0288143 0.0234314,0.0467397 0.00543566,0.0178902 0.00816229,0.0391051 0.00816229,0.0638383 0,0.0346546 -0.00548844,0.0642253 -0.0165709,0.0888001 -0.0110648,0.0245045 -0.0255775,0.0443825 -0.0438547,0.0597747 -0.0183124,0.0153571 -0.0394569,0.0266506 -0.0633281,0.0336694 -0.0238536,0.00701887 -0.0485867,0.0105019 -0.0742874,0.0105019 -0.0471619,0 -0.0907351,-0.00990381 -0.131036,-0.0295707z"/>
      <path id="_400743640" class="fil2" d="M1.481 2.18486c0,0.0247156 0.00429224,0.043626 0.0130174,0.0562741 0.00870762,0.012648 0.0202826,0.0190688 0.0347249,0.0190688 0.00728273,0 0.0145479,-0.00107306 0.0217075,-0.00290254 0.00724755,-0.00186466 0.0145831,-0.00371173 0.0218482,-0.00562917l0 0.126727c-0.0159903,0.00566435 -0.0327195,0.0102556 -0.0504338,0.0138266 -0.0177143,0.00362378 -0.0362905,0.00545325 -0.0554121,0.00545325 -0.0175736,0 -0.0336343,-0.00385246 -0.0480414,-0.0118916 -0.014284,-0.00791601 -0.0265626,-0.0194382 -0.0368359,-0.034637 -0.0101677,-0.0149701 -0.0180309,-0.0330889 -0.0235897,-0.0543215 -0.00559398,-0.021426 -0.00842616,-0.0453676 -0.00842616,-0.0720533l0 -0.706583 0.131441 0 0 0.666669z"/>
      <path id="_394775888" class="fil2" d="M0.79512 2.37607c-0.0195789,0.0140201 -0.0490089,0.0210038 -0.0883075,0.0210038 -0.0931627,0 -0.139902,-0.066002 -0.139902,-0.197812l0 -0.288231 -0.0694147 0 0 -0.112284 0.0694147 0 0 -0.180028 0.131898 0.067075 0 0.112953 0.0963115 0 0 0.112284 -0.0963115 0 0 0.256708c0,0.0721413 0.033001,0.112583 0.0963115,0.0954671l0 0.112865z"/>
      <path id="_402755848" class="fil2" d="M2.48125 2.37382c-0.0195614,0.0140201 -0.0490089,0.0210214 -0.08829,0.0210214 -0.0931803,0 -0.139902,-0.066002 -0.139902,-0.197812l0 -0.288248 -0.0694498 0 0 -0.112267 0.0694498 0 0 -0.180063 0.131881 0.0671102 0 0.112953 0.0963115 0 0 0.112267 -0.0963115 0 0 0.25669c0,0.0721589 0.0330186,0.112619 0.0963115,0.0954847l0 0.112865z"/>
      <path id="_402755008" class="fil2" d="M1.31768 2.28699l0.0013897 0.109276c-0.106321,0.0119972 -0.152603,-0.00617449 -0.191409,-0.077014l-0.00172393 0c-0.0287263,0.0654215 -0.100058,0.0808841 -0.15635,0.0808841 -0.0417262,0 -0.0744457,-0.0159728 -0.0983169,-0.0480942 -0.0238536,-0.032139 -0.03571,-0.075167 -0.03571,-0.128714 0,-0.113322 0.0493256,-0.178497 0.147748,-0.196264l0.116453 -0.0210214c0,-0.0638734 -0.0254368,-0.0958014 -0.0763104,-0.0958014 -0.0510143,0 -0.0914739,0.0065615 -0.145602,0.0368007l0 -0.110402c0.0184179,-0.013035 0.0435909,-0.024311 0.0755891,-0.0342675 0.0318576,-0.00990381 0.0610061,-0.0147942 0.0873048,-0.0147942 0.12217,0 0.183335,0.0831357 0.183335,0.249231 0,0.0686582 0,0.137334 0,0.20601 0.018242,0.0319103 0.0508032,0.0398791 0.0936025,0.0441714zm-0.217919 -0.138425l0 -0.0393338 -0.077876 0.0136331c-0.0430279,0.00752901 -0.0644364,0.034074 -0.0644364,0.0794416 0,0.0204409 0.00508384,0.037434 0.0155682,0.0504338 0.0105195,0.0130702 0.0247156,0.0196669 0.0425706,0.0196669 0.0248739,0 0.0450685,-0.0116629 0.0607422,-0.0350591 0.0156033,-0.0233259 0.0234314,-0.0529493 0.0234314,-0.0887825z"/>
      <rect id="_402755584" class="fil3" x="1.61321" y="1.79799" width="0.134603" height="0.584443"/>
     </g>
     <rect id="_402757480" class="fil3" x="1.61321" y="1.61966" width="0.134603" height="0.117923"/>
    </g>
   </g>
  </g>
 </g>
</svg>
