<?xml version="1.0" encoding="utf-8"?>
<!-- Generator: Adobe Illustrator 22.0.1, SVG Export Plug-In . SVG Version: 6.00 Build 0)  -->
<svg version="1.1" id="Слой_1" xmlns="http://www.w3.org/2000/svg" xmlns:xlink="http://www.w3.org/1999/xlink" x="0px" y="0px"
	 viewBox="0 0 2000 874.1" style="enable-background:new 0 0 2000 874.1;" xml:space="preserve">
<style type="text/css">
	.st0{fill:#E5C316;}
	.st1{fill:#E5C316;stroke:#E5C316;stroke-width:11.1586;stroke-miterlimit:10;}
</style>
<path class="st0" d="M435.8,57.5h-16.7c-5.2,0-10,2.9-12.5,7.4c-9.6,17.8-37.7,61.5-85,66.3c-46.5,4.7-57.5-58.5-60-86.4
	c-0.7-7.3-6.8-12.9-14.1-12.9L233,32l-14.5,0c-7.3,0-13.4,5.6-14.1,12.9c-2.6,27.9-13.5,91.1-60,86.4C97,126.5,68.9,82.7,59.3,65
	c-2.5-4.6-7.3-7.4-12.5-7.4H30.2c-9.4,0-16.2,9.1-13.6,18.1l47.5,162.7c1.8,6,7.3,10.2,13.6,10.2H233h64.3
	c11.9,1.2,21.1,4.8,27.6,10.9c8.1,7.5,12.1,16.1,12.1,25.6c0,9.6-4,18.2-12.1,25.9c-8.1,7.7-20.4,11.6-36.9,11.6H141.1
	c-42.6,0-77.2,34.4-77.5,77l-0.1,15.7v112.7c0,7.8,6.3,14.1,14.1,14.1h77.6c7.8,0,14.1-6.3,14.1-14.1v-99.1
	c0-7.8,6.3-14.1,14.1-14.1h76.1c4.9,0,9.4,2.5,12,6.7l71.1,114c2.6,4.1,7.1,6.7,12,6.7h72.4c11.1,0,17.9-12.2,12-21.7l-65.2-104
	c-4.3-6.8-2-15.9,5-19.8c7.4-4.1,14.2-8.9,20.3-14.1c9.6-8.3,17.5-17.6,23.7-28.1c6.2-10.5,11-21.5,14.3-33.1
	c3.3-11.6,5-23.4,5-35.6c0-16.2-2.8-32-8.5-47.4c-0.4-1.2-0.9-2.3-1.3-3.4c-11-27.2-12.8-57.2-4.6-85.4l21.5-73.8
	C452,66.6,445.2,57.5,435.8,57.5z"/>
<g>
	<path class="st1" d="M549.9,417.2c-16.5-39.8-16.5-83.5,0-123.3c8.3-20.1,20.4-37.9,35.4-52.8c3.3-3.3,8.6-3.3,11.9,0l33.8,33.8
		c5.3,5.3,14.3,1.5,14.3-5.9v-79.4c0-4.6-3.8-8.4-8.4-8.4h-79.4c-7.5,0-11.2,9-5.9,14.3l14.9,14.9c3.3,3.3,3.3,8.6,0,11.8
		c-52.4,52.1-71.2,132.7-41.3,205.1c12.6,30.3,32.8,56.8,58.7,76.8c22.7,17.5,49.3,29.6,77.4,35.4c4.7,1,9.3-2.2,10-6.9l1.5-9.7
		c0.7-4.5-2.3-8.6-6.7-9.5C613.7,502.6,570.5,467.1,549.9,417.2z"/>
	<path class="st1" d="M872.1,427.4c19.2-46.3,19.2-97.3,0-143.6c-12.6-30.3-32.8-56.8-58.7-76.8c-22.7-17.5-49.3-29.6-77.4-35.4
		c-4.7-1-9.3,2.2-10,6.9l-1.5,9.7c-0.7,4.5,2.3,8.6,6.7,9.5c52.5,10.8,95.7,46.3,116.3,96.2c16.5,39.8,16.5,83.5,0,123.3
		c-8.3,20.1-20.4,38-35.4,52.8c-3.3,3.3-8.6,3.3-11.9,0l-33.8-33.8c-5.3-5.3-14.3-1.5-14.3,5.9v79.4c0,4.6,3.8,8.4,8.4,8.4h79.4
		c7.5,0,11.2-9,5.9-14.3l-14.8-14.8c-3.3-3.3-3.3-8.6,0-11.8C848.4,471.6,862.4,450.8,872.1,427.4z"/>
</g>
<path class="st0" d="M929,172h97c4.1,0,7.9,2.1,10.1,5.5l42.6,65.4c4.8,7.3,15.6,7.3,20.3,0l42.2-65.3c2.2-3.5,6.1-5.5,10.2-5.5
	h97.1c9.6,0,15.4,10.6,10.2,18.7l-114.1,176c-1.3,2-1.9,4.2-1.9,6.6V453c0,3.4-1.4,6.6-3.9,8.9l-80.9,74.6
	c-7.8,7.1-20.3,1.6-20.3-8.9V376c0-2.4-0.7-4.6-2-6.6L918.9,190.7C913.7,182.6,919.4,172,929,172z"/>
<path class="st0" d="M1280,346.4h131.8c7.7,0,13.3-7.4,11.2-14.8l-41.2-146.5c-2.1-7.4,3.5-14.8,11.2-14.8h80.7
	c5.2,0,9.8,3.5,11.2,8.5l97.3,345.8c2.1,7.4-3.5,14.8-11.2,14.8h-81.2c-5.2,0-9.8-3.5-11.2-8.5l-24.7-87.9c-1.4-5-6-8.5-11.2-8.5
	h-82c-5.2,0-9.8,3.5-11.2,8.5l-24.7,87.9c-1.4,5-6,8.5-11.2,8.5h-80.7c-7.7,0-13.3-7.4-11.2-14.8l47.3-169.7
	C1270.1,349.9,1274.7,346.4,1280,346.4z"/>
<path class="st0" d="M1766,183v252c0,6.7,5.4,12.1,12.1,12.1h194.8c6.7,0,12.1,5.4,12.1,12.1v67.2c0,6.7-5.4,12.1-12.1,12.1h-300.5
	c-6.7,0-12.1-5.4-12.1-12.1V258.5c0-3.4,1.4-6.6,3.9-8.9l81.5-75.6C1753.4,166.9,1766,172.4,1766,183z"/>
<g>
	<polygon class="st0" points="913.6,742.5 952.8,742.5 933.2,704.1 	"/>
	<path class="st0" d="M1368.8,633.1H631.5c-16.1,0-28.6,14.1-26.6,30.1l18.3,146.4c1.7,13.4,13.1,23.5,26.6,23.5h700.8
		c13.5,0,24.9-10.1,26.6-23.5l18.3-146.4C1397.4,647.2,1384.9,633.1,1368.8,633.1z M850.7,756c0,4.8-0.7,8.6-2,11.5
		c-1.7,3.5-4.6,6.6-8.9,9.4c-3.1,2-6.7,3.4-10.6,4.2c-3.1,0.6-6.9,1-11.3,1c-1.2,0-2.4,0-3.6,0c-1.2,0-2.5,0-3.7,0
		c-0.5,0-0.9,0-1.2,0h-43c-6.9,0-12.3-0.5-16.2-1.4c-4.8-1.2-9.6-3.6-14.4-7.1c-3.1-2.4-5.4-6.6-6.9-12.6
		c-1.2-5.1-1.8-11.1-1.8-18.1v-22c0-8.4,1-15.2,3-20.2c1.7-4.3,4.1-7.6,7.4-10.1c2.7-2.1,6.7-3.7,12-4.8c5.3-1.1,11.6-1.7,18.8-1.7
		h46.2c3.1,0,6.6,0.2,10.4,0.7c6.3,0.7,10.5,1.8,12.8,3.4c4.5,2.9,7.7,6.5,9.4,10.8c1.5,3.6,2.2,8.4,2.2,14.4v6.2h-28.7
		c0-0.6,0-1,0-1.2c0-1.7-0.2-3.1-0.5-4.3c-0.3-1.1-1-2.1-2-3c-1.3-1.2-2.8-2-4.5-2.3c-1.7-0.3-3.9-0.5-6.7-0.5h-32.1
		c-1,0-1.9,0-2.5,0c-2.1,0-4,0.1-5.7,0.4c-1.7,0.3-3.1,0.8-4.3,1.6c-3.6,2.3-5.4,5.6-5.4,10v21.4c0,2.8,0.2,5.1,0.7,6.7
		c0.4,1.7,1.4,3.4,3,5.3c1,1.2,2.7,2.2,5.2,3c2.5,0.9,4.6,1.3,6.3,1.3h34.9c1.4,0,2.4,0,3,0c1.7,0,3.1-0.1,4.3-0.4
		c1.2-0.3,2.4-0.9,3.7-1.9c2.9-2.2,4.4-5.3,4.4-9.1c0-0.4-0.1-1-0.2-1.9h28.7V756z M973.2,781.8l-9.8-17.4h-60.5l-8.3,17.4h-34.3
		l51.8-97.9h43.3l52.7,97.9H973.2z M1132.2,755.9c0,3.9-0.4,7.2-1.3,9.8c-0.9,2.6-2.5,5.3-4.9,8c-3.1,3.3-7.9,5.6-14.6,6.9
		c-4,0.8-9,1.1-14.9,1.1c-1.7,0-2.7,0-3.2,0h-43.2c-5.5,0-10.3-0.3-14.5-1c-4.2-0.6-7.5-1.8-10-3.4c-2.5-1.7-4.4-3.9-5.8-6.6
		c-1.3-2.8-2-5.4-2-8v-13h27.8v2.9c0,1.1,0,2,0.1,2.8c0.1,0.8,0.6,1.7,1.4,2.9c0.8,1.1,1.9,1.9,3.2,2.2c1.3,0.4,3,0.6,4.9,0.6h37.7
		c0.6,0,1.1,0,1.4,0c2,0,3.6-0.1,4.8-0.3c1.2-0.2,2.4-0.8,3.5-1.8c0.8-0.7,1.4-1.4,1.8-2.2c0.4-0.8,0.5-1.6,0.5-2.5v-2.5
		c0-1.5-0.3-2.8-0.8-3.9c-0.5-1.1-1.5-2-2.7-2.7c-0.6-0.4-1.7-0.7-3.2-0.9c-1.5-0.2-3.9-0.3-7-0.3l-42.6-0.6
		c-5.3,0-9.8-0.4-13.4-1.2c-4.5-1-7.9-2.5-10.3-4.5c-3.2-2.7-5.4-6.2-6.7-10.5c-0.8-2.6-1.2-5.5-1.2-8.5v-5.6c0-6.1,0.6-10.7,1.7-14
		c1.5-4.3,4.4-7.9,8.7-10.6c2.9-1.9,6.5-3.1,10.9-3.7c4.4-0.6,9.4-0.9,15.1-0.9h37.8c7,0,13.4,0.7,19.3,2.1c7.7,1.9,12.7,4.8,15,8.7
		c1.4,2.6,2.4,4.9,2.9,7c0.5,2.1,0.8,4.7,0.8,7.7v5.8h-27.4v-3.8c0-1-0.2-1.8-0.6-2.4c-0.4-0.7-1-1.4-1.9-2.1
		c-0.8-0.5-1.6-0.9-2.5-1.1c-0.9-0.2-1.9-0.3-3.1-0.3H1056c-2,0-3.4,0-4.3,0.1c-0.9,0.1-1.8,0.5-2.8,1.3c-2.3,1.7-3.5,3.8-3.5,6.1
		v1.9c0,2.2,0.8,4,2.4,5.4c0.8,0.6,1.6,0.9,2.5,1.1c0.9,0.2,2.1,0.2,3.5,0.2l48,1.2c4.3,0,8.3,0.3,12,1c3.7,0.7,6.6,1.6,8.7,2.9
		c3.4,2.2,5.9,5.5,7.6,10.1c1.3,3.8,2,7.9,2,12.5V755.9z M1273,781.8h-32.7v-35.3h-63.6v35.3h-32.4v-97.9h32.4v33.9h63.6v-33.9h32.7
		V781.8z"/>
</g>
</svg>
